<svg width="50" height="50" viewBox="0 0 50 50" fill="none" xmlns="http://www.w3.org/2000/svg">
<rect x="11.3633" y="38.6362" width="38.6363" height="11.3636" rx="5.68181" fill="#0059DF"/>
<path fill-rule="evenodd" clip-rule="evenodd" d="M0 8C0 3.58172 3.58172 0 8 0H23.5454C26.8591 0 29.5454 2.68629 29.5454 6L29.5454 13.6364H13.6364V19.3182H29.5454L29.5454 20.4545L29.5454 32.9545H13.6364V38.6363H29.5454L29.5454 42C29.5454 46.4182 25.9637 50 21.5454 50H8.00001C3.58173 50 0 46.4182 0 42V8Z" fill="#343434"/>
<path d="M34.6592 11.3635H48.2955L29.5455 38.6362H15.9092L34.6592 11.3635Z" fill="#0042A6"/>
<path d="M17.0459 6.81818C17.0459 3.0526 20.0985 0 23.8641 0H43.1822C46.9478 0 50.0004 3.0526 50.0004 6.81818V6.81818C50.0004 10.5838 46.9478 13.6364 43.1822 13.6364H23.8641C20.0985 13.6364 17.0459 10.5838 17.0459 6.81818V6.81818Z" fill="#0059DF"/>
</svg>
