<svg width="32" height="29" viewBox="0 0 32 29" fill="none" xmlns="http://www.w3.org/2000/svg">
<path d="M26.8503 21.907L21.1145 22.9183L24.1652 17.3369L24.1689 17.3301L24.1725 17.3231L27.5586 10.64C27.8218 10.1571 27.8941 9.57087 27.8946 9.03933C27.8952 8.49506 27.8198 7.94867 27.7431 7.51388C27.3346 5.19697 25.1252 3.64993 22.8083 4.05846L16.8311 5.1124C15.176 5.40424 14.0709 6.9825 14.3627 8.63755C14.6546 10.2926 16.2328 11.3977 17.8879 11.1059L20.7235 10.6059C21.0575 10.547 21.3109 10.9013 21.1472 11.1983L15.3442 21.7298C14.875 22.5814 14.7112 23.5679 14.88 24.5254C15.2885 26.8423 17.4979 28.3893 19.8148 27.9808L28.1693 26.5077C29.8667 26.2084 30.7597 24.6218 30.4757 23.0111C30.399 22.5759 30.2164 22.2217 29.909 21.9787C29.61 21.7423 29.2524 21.6587 28.9163 21.6393C28.5812 21.62 28.223 21.662 27.8819 21.7176C27.6903 21.7488 27.4764 21.7896 27.2687 21.8291C27.1228 21.8569 26.98 21.8841 26.8503 21.907ZM20.5743 23.0053C20.573 23.0053 20.5724 23.0052 20.5723 23.0052L20.5743 23.0053Z" fill="#26A653" stroke="black"/>
<path d="M0.5 7L0.5 17.0575C0.5 20.6372 3.40192 23.5391 6.98161 23.5391H10.4203C12.1008 23.5391 13.4632 22.1767 13.4632 20.4961C13.4632 18.8155 12.1008 17.4531 10.4203 17.4531H7.10688C6.21266 17.4531 5.48774 16.7282 5.48774 15.834C5.48774 14.9398 6.21266 14.2148 7.10688 14.2148H9.51484C10.9614 14.2148 12.134 13.0422 12.134 11.5957C12.134 10.1492 10.9614 8.97657 9.51484 8.97657H6.68306C6.0229 8.97657 5.48774 8.44141 5.48774 7.78125C5.48774 7.1211 6.0229 6.58594 6.68306 6.58594H12.7577H13.0788C14.7593 6.58594 16.1217 5.22356 16.1217 3.54297C16.1217 1.86238 14.7593 0.5 13.0788 0.5H7C3.41015 0.5 0.5 3.41015 0.5 7Z" fill="#26A653" stroke="black"/>
</svg>
