<svg width="140" height="50" viewBox="0 0 140 50" fill="none" xmlns="http://www.w3.org/2000/svg">
<rect x="11.3633" y="38.6362" width="38.6363" height="11.3636" rx="5.68181" fill="#0059DF"/>
<path fill-rule="evenodd" clip-rule="evenodd" d="M0 8C0 3.58172 3.58172 0 8 0H23.5454C26.8591 0 29.5454 2.68629 29.5454 6L29.5454 13.6364H13.6364V19.3182H29.5454L29.5454 20.4545L29.5454 32.9545H13.6364V38.6363H29.5454L29.5454 42C29.5454 46.4182 25.9637 50 21.5454 50H8.00001C3.58173 50 0 46.4182 0 42V8Z" fill="#343434"/>
<path d="M34.6592 11.3635H48.2955L29.5455 38.6362H15.9092L34.6592 11.3635Z" fill="#0042A6"/>
<path d="M17.0459 6.81818C17.0459 3.0526 20.0985 0 23.8641 0H43.1822C46.9478 0 50.0004 3.0526 50.0004 6.81818V6.81818C50.0004 10.5838 46.9478 13.6364 43.1822 13.6364H23.8641C20.0985 13.6364 17.0459 10.5838 17.0459 6.81818V6.81818Z" fill="#0059DF"/>
<path fill-rule="evenodd" clip-rule="evenodd" d="M58.0904 0H53.5449V6.81818H58.0904V10.2273H53.5449V17.0454L58.0904 17.0454H67.1813H80.8176H89.9085L92.454 17.0454C93.5586 17.0454 94.454 16.15 94.454 15.0454V10.2273H89.9085V6.81818H92.454C93.5586 6.81818 94.454 5.92275 94.454 4.81818V0H89.9085H80.8176H67.1813H58.0904ZM80.8176 10.2273V6.81818H67.1813V10.2273H80.8176ZM78.5449 20.4545H94.454V25.2727C94.454 26.3773 93.5586 27.2727 92.454 27.2727H78.5449V29.5454H69.454V27.2727H53.5449V20.4545H69.454H78.5449Z" fill="#343434"/>
<path fill-rule="evenodd" clip-rule="evenodd" d="M57.2395 42.2893C56.0628 42.5623 54.8256 42.8494 53.5449 43.1815V49.9997C62.9592 47.8251 69.7165 46.0041 73.9995 43.2396C77.9005 45.7576 83.8543 47.4928 91.9989 49.4255C93.2504 49.7225 94.454 48.7714 94.454 47.485V43.1815C93.1733 42.8494 91.9361 42.5623 90.7594 42.2893C84.266 40.7828 79.6132 39.7033 79.6448 33.825C79.6639 33.5409 79.6761 33.2507 79.6813 32.9543H68.3176C68.3228 33.2507 68.335 33.5409 68.3541 33.825C68.3857 39.7033 63.7329 40.7828 57.2395 42.2893Z" fill="#343434"/>
<path d="M99 0V17.0454H119.455H137.909C139.014 17.0454 139.909 16.15 139.909 15.0454V0.000349805H130.818V2.27273H108.091V0.000349805L99 0ZM108.091 7.95454H130.818V10.2273H108.091V7.95454ZM99 20.4545V27.2727H137.909C139.014 27.2727 139.909 26.3773 139.909 25.2727V20.4545H99ZM114.909 18.1818V21.5909H124V18.1818H114.909ZM99 29.5454V35.2273H130.818V37.5H99V47.7396H108.091V42.0454H137.909C139.014 42.0454 139.909 41.15 139.909 40.0454V29.5454H99ZM99 44.3182V50.0003H137.909C139.014 50.0003 139.909 49.1049 139.909 48.0003V44.3182H119.455H99Z" fill="#343434"/>
</svg>
