<svg width="97" height="27" viewBox="0 0 97 27" fill="none" xmlns="http://www.w3.org/2000/svg">
<path d="M83.404 3C82.6275 3 81.998 3.62946 81.998 4.40593V7.47794C81.998 9.12667 83.3346 10.4632 84.9833 10.4632H93.6345C95.2832 10.4632 96.6198 9.12667 96.6198 7.47794V4.40594C96.6198 3.62946 95.9903 3 95.2138 3H94.6556C94.1874 3 93.8079 3.37951 93.8079 3.84766C93.8079 4.3158 93.3353 4.40593 92.8671 4.40593H85.4996C85.0315 4.40593 84.8099 4.3158 84.8099 3.84766C84.8099 3.37951 84.4304 3 83.9623 3H83.404ZM84.8099 7.39626C84.8099 7.01535 85.6171 7 85.998 7H92.8671C93.248 7 93.8079 7.01535 93.8079 7.39626C93.8079 7.77716 93.3789 8 92.998 8H85.998C85.6171 8 84.8099 7.77716 84.8099 7.39626ZM83.6934 11.9004C82.7571 11.9004 81.998 12.6594 81.998 13.5957C81.998 14.532 82.7571 15.291 83.6934 15.291H94.9245C95.8607 15.291 96.6198 14.532 96.6198 13.5957C96.6198 12.6594 95.8607 11.9004 94.9245 11.9004H83.6934ZM87.903 9.7119V11.7621C87.903 12.5386 88.5324 13.168 89.3089 13.168C90.0854 13.168 90.7148 12.5386 90.7148 11.7621V9.7119H89.3089H87.903ZM83.6934 16.1387C82.7571 16.1387 81.998 16.8977 81.998 17.834C81.998 18.3021 82.3776 18.6816 82.8457 18.6816H92.8671C93.1012 18.6816 93.291 18.8714 93.291 19.1055C93.291 19.3396 93.1012 19.5293 92.8671 19.5293H85.0034C83.3436 19.5293 81.998 20.8748 81.998 22.5346V22.9456C81.998 23.5485 82.4868 24.0373 83.0898 24.0373H84.0787C84.7384 24.0373 85.2732 23.5025 85.2732 22.8429C85.2732 22.1832 85.8079 21.6484 86.4676 21.6484H93.8649C95.3864 21.6484 96.6198 20.415 96.6198 18.8936C96.6198 17.3721 95.3864 16.1387 93.8649 16.1387H83.6934ZM81.998 22.4961C81.998 23.9005 83.1366 25.0391 84.541 25.0391H94.9245C95.8608 25.0391 96.6198 24.2801 96.6198 23.3438C96.6198 22.8756 96.2403 22.4961 95.7721 22.4961H81.998Z" fill="#343434"/>
<path d="M48.7579 25.0391C46.6814 25.0391 44.998 23.3557 44.998 21.2792C44.998 20.4211 45.2916 19.5887 45.83 18.9205L53.3736 9.55661C53.8499 8.96539 53.4291 8.08594 52.6699 8.08594H49.7905C48.3861 8.08594 47.2475 6.94741 47.2475 5.54297C47.2475 4.13853 48.3861 3 49.7905 3H55.8599C57.9364 3 59.6198 4.68334 59.6198 6.75985C59.6198 7.618 59.5384 8.83173 59 9.5L54.5 15.5L50.5 20.5C50.097 21.0003 49.8576 21.2792 50.5 21.2792H56.7412C58.1457 21.2792 59.6198 21.0917 59.6198 22.4961C59.6198 23.9005 58.6457 25.0391 57.2412 25.0391H48.7579Z" fill="#26A653"/>
<path d="M34.9797 25.0391C31.6761 25.0391 28.998 22.361 28.998 19.0575V9C28.998 5.68629 31.6843 3 34.998 3H41.0768C42.4812 3 43.6198 4.13853 43.6198 5.54297C43.6198 6.94741 42.4812 8.08594 41.0768 8.08594H40.7557H34.6811C33.7448 8.08594 32.9858 8.84496 32.9858 9.78125C32.9858 10.7175 33.7448 11.4766 34.6811 11.4766H37.5129C38.6833 11.4766 39.632 12.4253 39.632 13.5957C39.632 14.7661 38.6833 15.7148 37.5129 15.7148H35.1049C33.9346 15.7148 32.9858 16.6636 32.9858 17.834C32.9858 19.0044 33.9346 19.9531 35.1049 19.9531H38.4183C39.8227 19.9531 40.9613 21.0917 40.9613 22.4961C40.9613 23.9005 39.8227 25.0391 38.4183 25.0391H34.9797Z" fill="#26A653"/>
<path d="M65.3877 3C64.4514 3 63.6924 3.75902 63.6924 4.69531V4.69531C63.6924 5.63161 64.4514 6.39063 65.3877 6.39063H76.6188C77.5551 6.39063 78.3141 5.63161 78.3141 4.69531V4.69531C78.3141 3.75902 77.5551 3 76.6188 3H65.3877ZM65.1758 7.66211C64.3565 7.66211 63.6924 8.32625 63.6924 9.14551V9.14551C63.6924 9.96477 64.3565 10.6289 65.1758 10.6289H76.8307C77.65 10.6289 78.3141 9.96477 78.3141 9.14551V9.14551C78.3141 8.32625 77.65 7.66211 76.8307 7.66211H65.1758ZM67.3478 3.60381C66.5713 3.60381 65.9419 4.23327 65.9419 5.00975V9.0159C65.9419 9.79238 66.5713 10.4218 67.3478 10.4218V10.4218C68.1243 10.4218 68.7537 9.79237 68.7537 9.0159V5.00975C68.7537 4.23327 68.1243 3.60381 67.3478 3.60381V3.60381ZM74.6587 3.60381C73.8822 3.60381 73.2527 4.23327 73.2527 5.00975V9.0159C73.2527 9.79238 73.8822 10.4218 74.6587 10.4218V10.4218C75.4352 10.4218 76.0646 9.79238 76.0646 9.0159V5.00975C76.0646 4.23327 75.4352 3.60381 74.6587 3.60381V3.60381ZM65.3877 11.9004C64.4514 11.9004 63.6924 12.6594 63.6924 13.5957V13.5957C63.6924 14.532 64.4514 15.291 65.3877 15.291H76.6188C77.5551 15.291 78.3141 14.532 78.3141 13.5957V13.5957C78.3141 12.6594 77.5551 11.9004 76.6188 11.9004H65.3877ZM69.3412 13.9441V15.7919C69.3412 16.6889 70.0683 17.416 70.9652 17.416V17.416C71.8622 17.416 72.5893 16.6889 72.5893 15.7919V13.9441H69.3412ZM70.1587 17.834C69.3376 17.834 68.6264 18.4038 68.4474 19.2051V19.2051C68.4246 19.3069 68.3941 19.4073 68.3484 19.5011C67.8281 20.5703 66.8431 20.8157 65.2584 21.2213C64.3594 21.4514 63.8061 22.3342 63.958 23.2498V23.2498C64.1227 24.2428 65.0577 24.9276 66.0205 24.6338C68.8337 23.7753 71.8592 21.8703 72.3425 19.3743C72.4267 18.9394 72.219 18.5137 71.8869 18.2206V18.2206C71.6048 17.9715 71.2413 17.834 70.8649 17.834H70.1587ZM70.9092 19.1055C70.518 19.1055 70.2008 19.4226 70.2008 19.8139V20.8008C70.0893 23.1706 72.9398 23.8296 75.7868 24.5229C76.834 24.7779 77.9078 24.0979 78.0842 23.0346V23.0346C78.2191 22.2211 77.7786 21.4145 76.9749 21.2297C74.8248 20.7351 72.3327 20.7715 71.5963 19.5814C71.5752 19.5473 71.5602 19.5098 71.5496 19.4711V19.4711C71.4902 19.2551 71.2938 19.1055 71.0698 19.1055H70.9092Z" fill="#343434"/>
<path d="M4.71973 0.178223C7.45739 7.32088 10.1051 9.25488 15.3711 11.6806L11.5944 19.5724L-0.00114951 10.043L4.71973 0.178223Z" fill="#343434"/>
<path d="M16.7363 13.2124L22.1096 23.0841L20.2356 27L12.9884 21.0441L16.7363 13.2124Z" fill="#343434"/>
<path d="M25.001 7C25.001 9.20914 23.2101 11 21.001 11C18.7918 11 17.001 9.20914 17.001 7C17.001 4.79086 18.7918 3 21.001 3C23.2101 3 25.001 4.79086 25.001 7Z" fill="#26A653"/>
</svg>
