<svg version="1.1" id="Layer_1" xmlns="http://www.w3.org/2000/svg" xmlns:xlink="http://www.w3.org/1999/xlink" x="0px" y="0px"
	 width="100%" viewBox="0 0 281 95" enable-background="new 0 0 281 95" xml:space="preserve">
<path fill="#FDFDFD" opacity="1.000000" stroke="none" 
	d="
M182.000000,96.000000 
	C121.333344,96.000000 61.166687,96.000000 1.000024,96.000000 
	C1.000016,64.333351 1.000016,32.666698 1.000008,1.000037 
	C94.666634,1.000025 188.333267,1.000025 281.999939,1.000012 
	C281.999939,32.666630 281.999939,64.333260 281.999969,95.999939 
	C248.833328,96.000000 215.666672,96.000000 182.000000,96.000000 
M85.501953,72.107269 
	C85.364594,72.391136 85.227234,72.675003 85.019943,73.707893 
	C85.333405,75.387215 85.646866,77.066536 85.361671,79.104568 
	C85.901505,79.441322 86.441345,79.778076 86.978600,80.027206 
	C86.978600,80.027206 86.891922,80.040314 86.469086,80.799667 
	C87.142654,81.189865 87.802864,81.894402 88.491768,81.923691 
	C101.325745,82.469246 114.160957,83.043755 127.002129,83.300468 
	C128.960388,83.339622 130.949615,81.829628 132.967514,81.028801 
	C132.967514,81.028801 132.958450,81.071472 133.342712,81.690117 
	C136.559280,82.503471 139.775848,83.316818 143.772842,84.298065 
	C148.053131,84.000359 150.055481,81.387123 150.080231,77.415703 
	C150.184631,60.657448 150.290482,43.895237 149.961060,27.143024 
	C149.917603,24.933811 147.368835,22.773865 145.429810,20.175062 
	C144.280838,20.144838 143.131866,20.114614 141.501053,19.619144 
	C140.231018,19.494972 138.960999,19.370800 137.188034,19.019745 
	C135.201096,20.349751 133.214157,21.679756 131.004791,23.886244 
	C130.920761,27.604820 130.836716,31.323397 129.963028,34.952457 
	C129.698242,34.944107 129.433472,34.935753 129.054352,34.167625 
	C128.477966,29.322876 126.087173,25.624676 121.583908,22.406610 
	C118.398476,21.644114 115.213036,20.881617 111.235123,20.019291 
	C106.086052,17.252392 101.223976,19.606705 96.392502,21.017206 
	C91.804077,22.356750 87.529442,28.171532 87.193794,32.209148 
	C86.769104,35.832047 86.344421,39.454945 85.846298,43.704281 
	C83.463028,42.645737 81.456352,41.754456 79.440834,39.945011 
	C79.397972,35.463657 79.786407,30.917404 79.126083,26.528957 
	C78.806999,24.408384 76.516670,22.584425 74.554253,20.173782 
	C73.363609,20.143925 72.172966,20.114067 70.480652,19.636648 
	C67.638992,17.951735 63.941216,19.171883 61.169136,22.751089 
	C60.761238,23.757818 60.002537,24.762899 59.997803,25.771523 
	C59.920490,42.241901 59.897728,58.713039 60.024086,75.182762 
	C60.032784,76.316315 61.315533,77.440086 61.856441,79.201340 
	C62.882015,80.144218 63.907593,81.087090 65.237846,82.731430 
	C67.489296,83.191055 69.740738,83.650681 72.776833,84.274780 
	C77.422035,83.908264 79.419785,81.257858 79.391891,76.744926 
	C79.351570,70.220146 79.381569,63.694946 79.381569,57.825115 
	C82.804535,56.695744 85.404053,55.838058 88.575562,55.221928 
	C89.609985,56.187256 90.644402,57.152588 91.983810,58.766968 
	C97.435257,63.607708 104.002510,64.796043 111.793610,64.740456 
	C123.250038,63.417313 127.297630,60.220261 129.949921,51.010586 
	C130.226181,50.992512 130.502426,50.974438 130.858582,51.892574 
	C130.667892,58.307034 130.477219,64.721489 129.484268,71.002708 
	C128.672623,70.981537 127.860970,70.960373 127.006905,71.001686 
	C127.006905,71.001686 127.069771,70.959717 126.703003,70.244797 
	C125.158623,69.810509 123.615326,69.005836 122.069687,69.001320 
	C111.039368,68.969048 100.008575,69.099960 88.303169,69.227119 
	C87.518097,70.144310 86.733032,71.061501 85.999550,72.001656 
	C85.999550,72.001656 85.995018,71.945366 85.501953,72.107269 
M27.392794,81.647293 
	C28.258270,81.772232 29.123747,81.897171 30.690472,82.452736 
	C37.483906,82.522942 44.278374,82.692818 51.070339,82.622040 
	C54.559036,82.585693 56.482334,80.141914 56.935047,77.047676 
	C57.345509,74.242241 56.676769,71.453690 52.734554,70.264206 
	C51.842571,70.156654 50.950584,70.049103 50.000492,69.999374 
	C50.000492,69.999374 50.066738,69.951149 49.786854,69.224640 
	C46.714848,68.726311 43.642845,68.227974 40.431061,66.838615 
	C40.397396,54.452362 40.371994,42.066078 40.324844,29.679876 
	C40.311371,26.140205 40.159035,22.639612 35.234776,20.932505 
	C34.167110,20.934557 33.099442,20.936611 31.660053,20.239592 
	C28.938114,20.804499 26.216177,21.369406 22.708652,21.730881 
	C22.186880,23.153511 21.665106,24.576139 20.975634,26.923140 
	C21.026978,42.614021 21.078321,58.304901 20.969019,74.761017 
	C21.171860,78.557007 22.708607,81.111916 27.392794,81.647293 
M173.782501,25.525587 
	C173.581558,26.141865 173.206726,26.757694 173.205124,27.374493 
	C173.167267,41.975368 173.117065,56.576786 173.238144,71.176704 
	C173.251663,72.805611 174.280212,74.426094 175.150604,76.720581 
	C187.345016,82.600647 200.245255,79.368652 212.871292,79.577911 
	C214.570389,79.606079 216.290482,78.565941 217.985474,78.610184 
	C231.877228,78.972809 245.765533,79.695312 259.654236,79.680519 
	C261.575653,79.678474 264.718872,76.435379 265.053711,74.335175 
	C265.362671,72.397163 263.150726,69.090736 261.160583,67.982368 
	C258.273590,66.374481 254.623093,65.879936 251.232483,65.504570 
	C247.671036,65.110306 244.032089,65.416328 239.757538,65.416328 
	C240.432053,64.240494 240.699722,63.698483 241.034393,63.201614 
	C247.701843,53.302944 254.419281,43.437626 261.036438,33.505486 
	C265.759521,26.416294 263.624359,21.403316 254.898514,21.043818 
	C242.297821,20.524673 229.653458,21.065487 216.233429,21.272512 
	C214.986771,21.527960 213.732574,22.036278 212.494629,21.999342 
	C201.361603,21.667185 190.233078,21.176544 179.099197,20.886829 
	C176.548950,20.820469 174.198410,21.589767 173.782501,25.525587 
z"/>
<path fill="#84F9AC" opacity="1.000000" stroke="none" 
	d="
M87.946266,31.938147 
	C87.529442,28.171532 91.804077,22.356750 96.392502,21.017206 
	C101.223976,19.606705 106.086052,17.252392 111.763496,20.386627 
	C117.741577,22.523535 122.009590,25.944149 122.693146,31.683805 
	C123.434341,37.907421 123.366096,44.328171 122.723274,50.567387 
	C122.458015,53.141979 120.316467,56.271866 118.096977,57.762371 
	C110.004517,63.196880 101.514015,62.375320 92.980286,57.629135 
	C91.391472,53.428158 89.472008,49.622372 88.728645,45.599274 
	C87.906410,41.149307 88.160767,36.500408 87.946266,31.938147 
M110.150673,33.259373 
	C110.003021,32.639652 109.855362,32.019936 109.103539,30.965866 
	C102.906776,29.213877 100.134895,31.119719 100.018608,37.296875 
	C99.959137,40.455517 99.489067,43.757812 100.251396,46.726353 
	C100.744507,48.646542 102.867966,50.954643 104.735443,51.519291 
	C107.300423,52.294838 110.615913,52.079117 110.819176,47.101631 
	C110.516937,42.633293 110.214699,38.164959 110.150673,33.259373 
z"/>
<path fill="#85F9AC" opacity="1.000000" stroke="none" 
	d="
M23.494238,21.934313 
	C26.216177,21.369406 28.938114,20.804499 31.925684,20.976881 
	C32.933498,24.153387 34.240433,26.575302 34.315781,29.034946 
	C34.579712,37.650799 34.419228,46.279655 34.419689,54.903576 
	C34.419941,59.661568 34.419735,64.419556 34.419735,69.951149 
	C40.059727,69.951149 45.063232,69.951149 50.066738,69.951149 
	C50.066738,69.951149 50.000492,69.999374 49.715019,70.278404 
	C52.380634,76.117218 50.265873,79.789032 43.899582,79.954124 
	C38.270401,80.100090 32.636749,80.073601 26.643543,80.052818 
	C25.063091,77.982758 23.844166,75.983139 22.709311,73.523544 
	C22.774483,57.400059 22.755589,41.736534 22.868864,25.670540 
	C23.165436,24.156820 23.329838,23.045567 23.494238,21.934313 
z"/>
<path fill="#86FCAE" opacity="1.000000" stroke="none" 
	d="
M64.933167,82.029968 
	C63.907593,81.087090 62.882015,80.144218 61.905083,78.376472 
	C61.970631,59.178913 61.987537,40.806221 62.004440,22.433527 
	C63.941216,19.171883 67.638992,17.951735 70.864136,20.222422 
	C71.916801,23.100254 73.035110,25.367386 73.163986,27.689430 
	C73.454445,32.922756 73.255173,38.183258 73.255173,43.137817 
	C77.683929,44.574097 83.802109,41.823544 84.143356,47.961121 
	C84.563927,55.525379 77.142456,51.638107 73.256844,53.837616 
	C73.256844,60.219810 73.275444,66.687164 73.251770,73.154373 
	C73.226547,80.045784 71.850761,81.494125 64.933167,82.029968 
z"/>
<path fill="#1C3F5D" opacity="1.000000" stroke="none" 
	d="
M217.027725,21.154041 
	C229.653458,21.065487 242.297821,20.524673 254.898514,21.043818 
	C263.624359,21.403316 265.759521,26.416294 261.036438,33.505486 
	C254.419281,43.437626 247.701843,53.302944 241.034393,63.201614 
	C240.699722,63.698483 240.432053,64.240494 239.757538,65.416328 
	C244.032089,65.416328 247.671036,65.110306 251.232483,65.504570 
	C254.623093,65.879936 258.273590,66.374481 261.160583,67.982368 
	C263.150726,69.090736 265.362671,72.397163 265.053711,74.335175 
	C264.718872,76.435379 261.575653,79.678474 259.654236,79.680519 
	C245.765533,79.695312 231.877228,78.972809 217.985474,78.610184 
	C216.290482,78.565941 214.570389,79.606079 212.871292,79.577911 
	C200.245255,79.368652 187.345016,82.600647 175.031769,76.403168 
	C174.912933,76.085762 174.988876,76.054100 175.415100,76.022423 
	C185.938507,76.205887 196.038788,76.621368 206.130280,76.466133 
	C208.134750,76.435303 210.105576,74.217133 212.342865,73.009346 
	C212.928284,73.018326 213.262726,73.025581 213.749176,73.388924 
	C215.669891,74.716003 217.420868,76.488159 219.210205,76.527748 
	C230.675278,76.781418 242.149231,76.712204 253.619125,76.614151 
	C256.616089,76.588539 259.609833,75.635971 259.474091,71.960724 
	C259.341400,68.368073 256.492065,67.603081 253.367004,67.644501 
	C250.042725,67.688568 246.717361,67.651581 243.392471,67.651062 
	C239.331985,67.650429 235.271500,67.650917 230.362778,67.650917 
	C239.080078,54.984093 247.216354,43.308510 255.143982,31.492947 
	C256.418427,29.593451 258.039185,26.069300 257.248169,25.058712 
	C255.928955,23.373344 252.806824,22.426552 250.415024,22.369278 
	C239.783890,22.114716 229.142563,22.286694 218.216644,22.169691 
	C217.628159,21.741304 217.327942,21.447672 217.027725,21.154041 
z"/>
<path fill="#87FDAE" opacity="1.000000" stroke="none" 
	d="
M137.690964,19.246624 
	C138.960999,19.370800 140.231018,19.494972 141.846588,20.219490 
	C142.811859,22.503080 143.956085,24.181982 143.970047,25.870235 
	C144.106476,42.356678 144.133743,58.845295 144.005386,75.331848 
	C143.968506,80.068619 141.465698,81.807961 136.792877,81.143852 
	C135.536667,80.965324 134.237762,81.087387 132.958450,81.071472 
	C132.958450,81.071472 132.967514,81.028801 133.373749,80.840958 
	C133.249069,78.457726 132.718170,76.262329 132.277313,73.602798 
	C132.381454,70.654259 132.375320,68.169540 132.413010,65.685486 
	C132.628906,51.456196 132.855225,37.227070 133.355408,22.821016 
	C134.985519,21.511639 136.338242,20.379129 137.690964,19.246624 
z"/>
<path fill="#87FDAE" opacity="1.000000" stroke="none" 
	d="
M85.960320,78.745857 
	C85.646866,77.066536 85.333405,75.387215 85.296280,73.251740 
	C85.713425,72.512177 85.854218,72.228767 85.995018,71.945366 
	C85.995018,71.945366 85.999550,72.001656 86.306396,72.080963 
	C87.427505,71.743141 88.241760,71.326019 89.468407,70.865967 
	C102.277122,70.868599 114.673447,70.914154 127.069771,70.959717 
	C127.069771,70.959717 127.006905,71.001686 126.729774,71.271088 
	C128.774918,77.744896 127.307358,80.283333 120.605980,80.355659 
	C109.370399,80.476921 98.130188,80.168129 86.891922,80.040314 
	C86.891922,80.040314 86.978600,80.027206 86.949188,79.760201 
	C86.599953,79.244080 86.280136,78.994972 85.960320,78.745857 
z"/>
<path fill="#214B62" opacity="1.000000" stroke="none" 
	d="
M65.085510,82.380699 
	C71.850761,81.494125 73.226547,80.045784 73.251770,73.154373 
	C73.275444,66.687164 73.256844,60.219810 73.256844,53.837616 
	C77.142456,51.638107 84.563927,55.525379 84.143356,47.961121 
	C83.802109,41.823544 77.683929,44.574097 73.255173,43.137817 
	C73.255173,38.183258 73.454445,32.922756 73.163986,27.689430 
	C73.035110,25.367386 71.916801,23.100254 71.114975,20.446201 
	C72.172966,20.114067 73.363609,20.143925 74.802505,20.852978 
	C75.366409,26.892258 75.800079,32.249134 75.946114,37.613834 
	C76.015343,40.156776 76.868263,41.298920 79.449677,40.863174 
	C81.456352,41.754456 83.463028,42.645737 85.846298,43.704281 
	C86.344421,39.454945 86.769104,35.832047 87.570030,32.073647 
	C88.160767,36.500408 87.906410,41.149307 88.728645,45.599274 
	C89.472008,49.622372 91.391472,53.428158 92.607864,57.676266 
	C92.175217,58.054482 91.927017,58.086197 91.678825,58.117916 
	C90.644402,57.152588 89.609985,56.187256 88.252411,54.757736 
	C86.728256,53.922096 85.488846,53.169308 84.336906,53.285271 
	C83.159157,53.403839 82.030190,54.943562 80.944130,54.872929 
	C76.396568,54.577164 75.792854,57.115200 75.962440,60.766033 
	C76.336464,68.818405 76.425102,76.859619 71.992188,84.110306 
	C69.740738,83.650681 67.489296,83.191055 65.085510,82.380699 
z"/>
<path fill="#204460" opacity="1.000000" stroke="none" 
	d="
M216.630585,21.213276 
	C217.327942,21.447672 217.628159,21.741304 217.917984,22.390656 
	C213.536758,25.264563 213.944229,28.187996 217.131104,31.708984 
	C217.058838,32.305248 217.033325,32.543636 216.592392,32.881920 
	C208.704102,33.709076 201.231247,34.436337 193.544281,35.184437 
	C193.544281,37.713268 193.544281,40.138508 193.544281,42.257359 
	C198.876007,43.194588 203.959259,44.088139 208.827026,45.080765 
	C208.334061,45.355392 208.136276,45.596375 207.607529,45.832924 
	C200.779892,45.455750 194.362961,45.148438 187.376801,44.813862 
	C187.376801,41.725422 187.554413,38.761997 187.330215,35.829288 
	C187.071167,32.440636 188.164276,31.027800 191.771072,31.222786 
	C196.739731,31.491394 201.777603,31.656582 206.695465,31.086531 
	C208.565765,30.869738 210.185669,28.492819 211.919708,27.100410 
	C210.293625,25.555866 208.823822,23.772200 206.977112,22.565180 
	C206.018341,21.938530 204.393372,22.277500 203.069031,22.272989 
	C196.922867,22.252058 190.756699,21.969004 184.638321,22.381794 
	C181.340500,22.604292 178.124405,24.038183 174.759369,24.891064 
	C174.647293,24.856609 174.456970,24.993641 174.456970,24.993641 
	C174.198410,21.589767 176.548950,20.820469 179.099197,20.886829 
	C190.233078,21.176544 201.361603,21.667185 212.494629,21.999342 
	C213.732574,22.036278 214.986771,21.527960 216.630585,21.213276 
z"/>
<path fill="#203D5F" opacity="1.000000" stroke="none" 
	d="
M145.980377,20.591103 
	C147.368835,22.773865 149.917603,24.933811 149.961060,27.143024 
	C150.290482,43.895237 150.184631,60.657448 150.080231,77.415703 
	C150.055481,81.387123 148.053131,84.000359 143.419922,83.835953 
	C144.042831,79.483940 145.790863,75.607910 145.861023,71.701752 
	C146.166901,54.669647 145.985077,37.628784 145.980377,20.591103 
z"/>
<path fill="#203E60" opacity="1.000000" stroke="none" 
	d="
M35.991882,21.210089 
	C40.159035,22.639612 40.311371,26.140205 40.324844,29.679876 
	C40.371994,42.066078 40.397396,54.452362 40.045677,67.353470 
	C36.126747,68.495369 35.973328,66.295387 35.981728,63.683353 
	C36.027248,49.525734 35.996414,35.367870 35.991882,21.210089 
z"/>
<path fill="#153558" opacity="1.000000" stroke="none" 
	d="
M86.680504,80.419991 
	C98.130188,80.168129 109.370399,80.476921 120.605980,80.355659 
	C127.307358,80.283333 128.774918,77.744896 126.750977,71.239853 
	C127.860970,70.960373 128.672623,70.981537 130.100708,71.282272 
	C131.207199,72.396866 131.697250,73.231895 132.187286,74.066925 
	C132.718170,76.262329 133.249069,78.457726 133.352234,80.844627 
	C130.949615,81.829628 128.960388,83.339622 127.002129,83.300468 
	C114.160957,83.043755 101.325745,82.469246 88.491768,81.923691 
	C87.802864,81.894402 87.142654,81.189865 86.680504,80.419991 
z"/>
<path fill="#274465" opacity="1.000000" stroke="none" 
	d="
M121.997437,23.000065 
	C126.087173,25.624676 128.477966,29.322876 129.034607,35.013939 
	C129.050110,40.924999 129.085342,45.989750 129.120575,51.054497 
	C127.297630,60.220261 123.250038,63.417313 111.497063,64.336945 
	C123.080864,59.179565 125.333954,56.279369 124.872864,43.234356 
	C124.633568,36.464172 123.000732,29.743244 121.997437,23.000065 
z"/>
<path fill="#1E465F" opacity="1.000000" stroke="none" 
	d="
M121.790672,22.703339 
	C123.000732,29.743244 124.633568,36.464172 124.872864,43.234356 
	C125.333954,56.279369 123.080864,59.179565 111.100212,64.254898 
	C104.002510,64.796043 97.435257,63.607708 91.831314,58.442444 
	C91.927017,58.086197 92.175217,58.054482 92.795837,57.975632 
	C101.514015,62.375320 110.004517,63.196880 118.096977,57.762371 
	C120.316467,56.271866 122.458015,53.141979 122.723274,50.567387 
	C123.366096,44.328171 123.434341,37.907421 122.693146,31.683805 
	C122.009590,25.944149 117.741577,22.523535 112.159737,20.436539 
	C115.213036,20.881617 118.398476,21.644114 121.790672,22.703339 
z"/>
<path fill="#1D475F" opacity="1.000000" stroke="none" 
	d="
M145.705093,20.383083 
	C145.985077,37.628784 146.166901,54.669647 145.861023,71.701752 
	C145.790863,75.607910 144.042831,79.483940 143.029709,83.751999 
	C139.775848,83.316818 136.559280,82.503471 133.150574,81.380798 
	C134.237762,81.087387 135.536667,80.965324 136.792877,81.143852 
	C141.465698,81.807961 143.968506,80.068619 144.005386,75.331848 
	C144.133743,58.845295 144.106476,42.356678 143.970047,25.870235 
	C143.956085,24.181982 142.811859,22.503080 142.087509,20.452114 
	C143.131866,20.114614 144.280838,20.144838 145.705093,20.383083 
z"/>
<path fill="#163D5A" opacity="1.000000" stroke="none" 
	d="
M35.613327,21.071297 
	C35.996414,35.367870 36.027248,49.525734 35.981728,63.683353 
	C35.973328,66.295387 36.126747,68.495369 40.115562,67.798981 
	C43.642845,68.227974 46.714848,68.726311 49.926796,69.587891 
	C45.063232,69.951149 40.059727,69.951149 34.419735,69.951149 
	C34.419735,64.419556 34.419941,59.661568 34.419689,54.903576 
	C34.419228,46.279655 34.579712,37.650799 34.315781,29.034946 
	C34.240433,26.575302 32.933498,24.153387 32.111546,21.326418 
	C33.099442,20.936611 34.167110,20.934557 35.613327,21.071297 
z"/>
<path fill="#234062" opacity="1.000000" stroke="none" 
	d="
M72.384506,84.192543 
	C76.425102,76.859619 76.336464,68.818405 75.962440,60.766033 
	C75.792854,57.115200 76.396568,54.577164 80.944130,54.872929 
	C82.030190,54.943562 83.159157,53.403839 84.336906,53.285271 
	C85.488846,53.169308 86.728256,53.922096 87.966423,54.636959 
	C85.404053,55.838058 82.804535,56.695744 79.381569,57.825115 
	C79.381569,63.694946 79.351570,70.220146 79.391891,76.744926 
	C79.419785,81.257858 77.422035,83.908264 72.384506,84.192543 
z"/>
<path fill="#3F7277" opacity="1.000000" stroke="none" 
	d="
M61.586788,22.592308 
	C61.987537,40.806221 61.970631,59.178913 61.979759,78.060005 
	C61.315533,77.440086 60.032784,76.316315 60.024086,75.182762 
	C59.897728,58.713039 59.920490,42.241901 59.997803,25.771523 
	C60.002537,24.762899 60.761238,23.757818 61.586788,22.592308 
z"/>
<path fill="#45657B" opacity="1.000000" stroke="none" 
	d="
M174.119736,25.259613 
	C174.456970,24.993641 174.647293,24.856609 174.814301,25.365124 
	C174.983826,42.600460 174.986343,59.327278 174.988876,76.054100 
	C174.988876,76.054100 174.912933,76.085762 174.875488,76.068123 
	C174.280212,74.426094 173.251663,72.805611 173.238144,71.176704 
	C173.117065,56.576786 173.167267,41.975368 173.205124,27.374493 
	C173.206726,26.757694 173.581558,26.141865 174.119736,25.259613 
z"/>
<path fill="#0D2D53" opacity="1.000000" stroke="none" 
	d="
M132.277313,73.602798 
	C131.697250,73.231895 131.207199,72.396866 130.501831,71.348892 
	C130.477219,64.721489 130.667892,58.307034 130.934296,51.040268 
	C130.924225,45.139297 130.838455,40.090637 130.752686,35.041973 
	C130.836716,31.323397 130.920761,27.604820 131.426117,23.438206 
	C132.257614,22.992739 132.667816,22.995314 133.078003,22.997887 
	C132.855225,37.227070 132.628906,51.456196 132.413010,65.685486 
	C132.375320,68.169540 132.381454,70.654259 132.277313,73.602798 
z"/>
<path fill="#213D60" opacity="1.000000" stroke="none" 
	d="
M22.736692,26.073008 
	C22.755589,41.736534 22.774483,57.400059 22.460136,73.524834 
	C21.794518,73.992798 21.462107,73.996033 21.129665,73.995781 
	C21.078321,58.304901 21.026978,42.614021 21.325253,26.470121 
	C22.028812,26.035738 22.382753,26.054373 22.736692,26.073008 
z"/>
<path fill="#264364" opacity="1.000000" stroke="none" 
	d="
M53.042225,70.881889 
	C56.676769,71.453690 57.345509,74.242241 56.935047,77.047676 
	C56.482334,80.141914 54.559036,82.585693 51.070339,82.622040 
	C44.278374,82.692818 37.483906,82.522942 30.633472,81.939011 
	C34.680523,81.288544 38.784004,81.059006 42.888744,81.033768 
	C52.317467,80.975792 52.951885,80.383293 53.042225,70.881889 
z"/>
<path fill="#203E60" opacity="1.000000" stroke="none" 
	d="
M79.445251,40.404091 
	C76.868263,41.298920 76.015343,40.156776 75.946114,37.613834 
	C75.800079,32.249134 75.366409,26.892258 75.084816,21.079168 
	C76.516670,22.584425 78.806999,24.408384 79.126083,26.528957 
	C79.786407,30.917404 79.397972,35.463657 79.445251,40.404091 
z"/>
<path fill="#163D5A" opacity="1.000000" stroke="none" 
	d="
M52.888390,70.573044 
	C52.951885,80.383293 52.317467,80.975792 42.888744,81.033768 
	C38.784004,81.059006 34.680523,81.288544 30.282846,81.723694 
	C29.123747,81.897171 28.258270,81.772232 27.184792,81.146896 
	C26.986214,80.472092 26.995642,80.297676 27.005072,80.123253 
	C32.636749,80.073601 38.270401,80.100090 43.899582,79.954124 
	C50.265873,79.789032 52.380634,76.117218 49.744072,70.249489 
	C50.950584,70.049103 51.842571,70.156654 52.888390,70.573044 
z"/>
<path fill="#153558" opacity="1.000000" stroke="none" 
	d="
M126.886383,70.602257 
	C114.673447,70.914154 102.277122,70.868599 89.410721,70.581169 
	C88.953079,69.952530 88.965508,69.565750 88.977936,69.178978 
	C100.008575,69.099960 111.039368,68.969048 122.069687,69.001320 
	C123.615326,69.005836 125.158623,69.810509 126.886383,70.602257 
z"/>
<path fill="#BCC4CE" opacity="1.000000" stroke="none" 
	d="
M130.357849,34.997215 
	C130.838455,40.090637 130.924225,45.139297 130.894348,50.572163 
	C130.502426,50.974438 130.226181,50.992512 129.535248,51.032539 
	C129.085342,45.989750 129.050110,40.924999 129.091782,35.393829 
	C129.433472,34.935753 129.698242,34.944107 130.357849,34.997215 
z"/>
<path fill="#264364" opacity="1.000000" stroke="none" 
	d="
M26.643543,80.052818 
	C26.995642,80.297676 26.986214,80.472092 26.953678,80.907494 
	C22.708607,81.111916 21.171860,78.557007 21.049341,74.378403 
	C21.462107,73.996033 21.794518,73.992798 22.376068,73.984802 
	C23.844166,75.983139 25.063091,77.982758 26.643543,80.052818 
z"/>
<path fill="#44897C" opacity="1.000000" stroke="none" 
	d="
M133.355408,22.821016 
	C132.667816,22.995314 132.257614,22.992739 131.537323,22.999966 
	C133.214157,21.679756 135.201096,20.349751 137.439499,19.133183 
	C136.338242,20.379129 134.985519,21.511639 133.355408,22.821016 
z"/>
<path fill="#356B70" opacity="1.000000" stroke="none" 
	d="
M22.868864,25.670540 
	C22.382753,26.054373 22.028812,26.035738 21.409103,26.007936 
	C21.665106,24.576139 22.186880,23.153511 23.101444,21.832596 
	C23.329838,23.045567 23.165436,24.156820 22.868864,25.670540 
z"/>
<path fill="#499180" opacity="1.000000" stroke="none" 
	d="
M88.640549,69.203049 
	C88.965508,69.565750 88.953079,69.952530 88.998337,70.624100 
	C88.241760,71.326019 87.427505,71.743141 86.280609,72.069473 
	C86.733032,71.061501 87.518097,70.144310 88.640549,69.203049 
z"/>
<path fill="#153558" opacity="1.000000" stroke="none" 
	d="
M85.660995,78.925217 
	C86.280136,78.994972 86.599953,79.244080 86.950478,79.804016 
	C86.441345,79.778076 85.901505,79.441322 85.660995,78.925217 
z"/>
<path fill="#499180" opacity="1.000000" stroke="none" 
	d="
M85.748489,72.026321 
	C85.854218,72.228767 85.713425,72.512177 85.331253,72.877228 
	C85.227234,72.675003 85.364594,72.391136 85.748489,72.026321 
z"/>
<path fill="#1D465F" opacity="1.000000" stroke="none" 
	d="
M110.944298,47.911377 
	C110.615913,52.079117 107.300423,52.294838 104.735443,51.519291 
	C102.867966,50.954643 100.744507,48.646542 100.251396,46.726353 
	C99.489067,43.757812 99.959137,40.455517 100.018608,37.296875 
	C100.134895,31.119719 102.906776,29.213877 109.213791,31.323887 
	C109.324036,31.681908 108.987663,32.012154 108.586258,32.009239 
	C103.692711,31.993618 101.493484,34.016293 101.966835,38.706135 
	C102.180481,40.822895 101.437408,43.202484 102.166214,45.054401 
	C102.900513,46.920265 104.921913,48.279594 106.697823,49.835274 
	C108.325623,49.176910 109.634956,48.544144 110.944298,47.911377 
z"/>
<path fill="#EFF1F4" opacity="1.000000" stroke="none" 
	d="
M110.881737,47.506504 
	C109.634956,48.544144 108.325623,49.176910 106.580307,49.390884 
	C106.091057,45.855675 105.750450,42.707882 106.086098,39.633930 
	C106.307709,37.604282 107.501244,35.680756 108.426300,33.747246 
	C108.592987,33.784775 108.885857,33.608711 109.142792,33.627327 
	C109.570633,33.662834 109.741547,33.679726 109.912460,33.696621 
	C110.214699,38.164959 110.516937,42.633293 110.881737,47.506504 
z"/>
<path fill="#1D465F" opacity="1.000000" stroke="none" 
	d="
M110.031570,33.477997 
	C109.741547,33.679726 109.570633,33.662834 109.206703,33.501148 
	C109.013680,33.356358 108.958817,33.081425 108.969299,32.814194 
	C108.982414,32.368694 108.985039,32.190426 108.987663,32.012154 
	C108.987663,32.012154 109.324036,31.681908 109.515869,31.541063 
	C109.855362,32.019936 110.003021,32.639652 110.031570,33.477997 
z"/>
<path fill="#83F7AB" opacity="1.000000" stroke="none" 
	d="
M217.177856,31.351109 
	C213.944229,28.187996 213.536758,25.264563 218.206268,22.525410 
	C229.142563,22.286694 239.783890,22.114716 250.415024,22.369278 
	C252.806824,22.426552 255.928955,23.373344 257.248169,25.058712 
	C258.039185,26.069300 256.418427,29.593451 255.143982,31.492947 
	C247.216354,43.308510 239.080078,54.984093 230.362778,67.650917 
	C235.271500,67.650917 239.331985,67.650429 243.392471,67.651062 
	C246.717361,67.651581 250.042725,67.688568 253.367004,67.644501 
	C256.492065,67.603081 259.341400,68.368073 259.474091,71.960724 
	C259.609833,75.635971 256.616089,76.588539 253.619125,76.614151 
	C242.149231,76.712204 230.675278,76.781418 219.210205,76.527748 
	C217.420868,76.488159 215.669891,74.716003 213.846954,73.023331 
	C215.089172,69.910629 216.385574,67.519615 217.842682,64.957062 
	C218.215652,64.471390 218.189392,64.178398 217.952255,63.940262 
	C217.979889,63.973976 217.893616,63.961395 218.249756,63.947174 
	C220.043304,61.274212 221.480713,58.615463 222.953613,55.979355 
	C222.989136,56.001991 222.929413,55.943661 223.304901,56.059875 
	C223.848862,55.450264 224.017349,54.724434 224.390778,53.745773 
	C227.768784,48.770599 230.941849,44.048260 234.491608,39.211700 
	C235.223343,38.378723 235.578384,37.659962 235.966400,36.970829 
	C235.999390,37.000458 235.931076,36.942558 236.264343,37.168053 
	C237.811371,35.800793 239.025146,34.208042 241.202286,31.351109 
	C232.171234,31.351109 224.674545,31.351109 217.177856,31.351109 
z"/>
<path fill="#83F7AC" opacity="1.000000" stroke="none" 
	d="
M175.415100,76.022423 
	C174.986343,59.327278 174.983826,42.600460 174.926376,25.399578 
	C178.124405,24.038183 181.340500,22.604292 184.638321,22.381794 
	C190.756699,21.969004 196.922867,22.252058 203.069031,22.272989 
	C204.393372,22.277500 206.018341,21.938530 206.977112,22.565180 
	C208.823822,23.772200 210.293625,25.555866 211.919708,27.100410 
	C210.185669,28.492819 208.565765,30.869738 206.695465,31.086531 
	C201.777603,31.656582 196.739731,31.491394 191.771072,31.222786 
	C188.164276,31.027800 187.071167,32.440636 187.330215,35.829288 
	C187.554413,38.761997 187.376801,41.725422 187.376801,44.813862 
	C194.362961,45.148438 200.779892,45.455750 207.836166,46.093136 
	C210.427811,51.086658 208.955582,53.620247 203.775482,53.843357 
	C198.501266,54.070522 193.209671,53.893574 187.723846,53.893574 
	C187.723846,58.677471 187.723846,62.914452 187.723846,67.758476 
	C190.156326,67.758476 192.272171,67.671783 194.378662,67.775375 
	C199.832352,68.043579 205.281906,68.395668 210.803741,69.033043 
	C211.280197,70.570419 211.686066,71.789017 212.091919,73.007614 
	C210.105576,74.217133 208.134750,76.435303 206.130280,76.466133 
	C196.038788,76.621368 185.938507,76.205887 175.415100,76.022423 
z"/>
<path fill="#244A63" opacity="1.000000" stroke="none" 
	d="
M212.342865,73.009354 
	C211.686066,71.789017 211.280197,70.570419 210.888855,68.626328 
	C210.934357,67.627319 210.965363,67.353806 211.382294,67.102203 
	C213.204941,66.423828 214.641647,65.723526 216.479187,65.050400 
	C217.147354,65.094582 217.414658,65.111595 217.681976,65.128601 
	C216.385574,67.519615 215.089172,69.910629 213.694977,72.667236 
	C213.262726,73.025581 212.928284,73.018326 212.342865,73.009354 
z"/>
<path fill="#F5F6F8" opacity="1.000000" stroke="none" 
	d="
M216.078339,65.023224 
	C214.641647,65.723526 213.204941,66.423828 211.051941,66.828094 
	C206.906372,66.238487 203.480377,65.748711 200.047195,65.691681 
	C192.601288,65.568008 191.880112,64.641319 194.241104,57.053856 
	C198.787552,57.053856 203.427902,56.889641 208.050919,57.102356 
	C212.253723,57.295738 215.032471,55.455372 215.453674,51.475899 
	C215.899231,47.266300 213.134460,45.228573 209.042496,44.981689 
	C203.959259,44.088139 198.876007,43.194588 193.544281,42.257359 
	C193.544281,40.138508 193.544281,37.713268 193.544281,35.184437 
	C201.231247,34.436337 208.704102,33.709076 216.978241,32.992001 
	C222.660675,33.656830 227.558334,34.213688 232.411591,35.033463 
	C233.656723,35.243782 234.761703,36.283741 235.931076,36.942558 
	C235.931076,36.942558 235.999390,37.000458 235.643921,37.040466 
	C234.897263,37.828957 234.506073,38.577435 234.114899,39.325912 
	C230.941849,44.048260 227.768784,48.770599 224.040359,53.770157 
	C223.299805,54.679466 223.114609,55.311562 222.929413,55.943661 
	C222.929413,55.943661 222.989136,56.001991 222.609848,56.020119 
	C220.784912,58.679295 219.339264,61.320343 217.893616,63.961395 
	C217.893616,63.961395 217.979889,63.973976 217.678589,63.724915 
	C216.944305,63.991646 216.511322,64.507439 216.078339,65.023224 
z"/>
<path fill="#1E405E" opacity="1.000000" stroke="none" 
	d="
M208.827026,45.080765 
	C213.134460,45.228573 215.899231,47.266300 215.453674,51.475899 
	C215.032471,55.455372 212.253723,57.295738 208.050919,57.102356 
	C203.427902,56.889641 198.787552,57.053856 194.241104,57.053856 
	C191.880112,64.641319 192.601288,65.568008 200.047195,65.691681 
	C203.480377,65.748711 206.906372,66.238487 210.665985,66.806168 
	C210.965363,67.353806 210.934357,67.627319 210.818237,68.307556 
	C205.281906,68.395668 199.832352,68.043579 194.378662,67.775375 
	C192.272171,67.671783 190.156326,67.758476 187.723846,67.758476 
	C187.723846,62.914452 187.723846,58.677471 187.723846,53.893574 
	C193.209671,53.893574 198.501266,54.070522 203.775482,53.843357 
	C208.955582,53.620247 210.427811,51.086658 208.246857,46.162998 
	C208.136276,45.596375 208.334061,45.355392 208.827026,45.080765 
z"/>
<path fill="#193A5B" opacity="1.000000" stroke="none" 
	d="
M236.264343,37.168053 
	C234.761703,36.283741 233.656723,35.243782 232.411591,35.033463 
	C227.558334,34.213688 222.660675,33.656830 217.393677,32.892105 
	C217.033325,32.543636 217.058838,32.305248 217.131104,31.708984 
	C224.674545,31.351109 232.171234,31.351109 241.202286,31.351109 
	C239.025146,34.208042 237.811371,35.800793 236.264343,37.168053 
z"/>
<path fill="#244263" opacity="1.000000" stroke="none" 
	d="
M108.586258,32.009239 
	C108.985039,32.190426 108.982414,32.368694 108.816650,32.889519 
	C108.395935,33.287510 108.264633,33.446728 108.259613,33.709717 
	C107.501244,35.680756 106.307709,37.604282 106.086098,39.633930 
	C105.750450,42.707882 106.091057,45.855675 106.261848,49.416481 
	C104.921913,48.279594 102.900513,46.920265 102.166214,45.054401 
	C101.437408,43.202484 102.180481,40.822895 101.966835,38.706135 
	C101.493484,34.016293 103.692711,31.993618 108.586258,32.009239 
z"/>
<path fill="#84F9AC" opacity="1.000000" stroke="none" 
	d="
M108.426300,33.747246 
	C108.264633,33.446728 108.395935,33.287510 108.806168,33.156746 
	C108.958817,33.081425 109.013680,33.356358 108.949768,33.482536 
	C108.885857,33.608711 108.592987,33.784775 108.426300,33.747246 
z"/>
<path fill="#2E576B" opacity="1.000000" stroke="none" 
	d="
M218.249756,63.947174 
	C219.339264,61.320343 220.784912,58.679295 222.574341,55.997478 
	C221.480713,58.615463 220.043304,61.274212 218.249756,63.947174 
z"/>
<path fill="#193A5B" opacity="1.000000" stroke="none" 
	d="
M234.491608,39.211693 
	C234.506073,38.577435 234.897263,37.828957 235.610931,37.010841 
	C235.578384,37.659962 235.223343,38.378723 234.491608,39.211693 
z"/>
<path fill="#2E576B" opacity="1.000000" stroke="none" 
	d="
M216.479187,65.050400 
	C216.511322,64.507439 216.944305,63.991646 217.650955,63.691200 
	C218.189392,64.178398 218.215652,64.471390 217.842682,64.957062 
	C217.414658,65.111595 217.147354,65.094582 216.479187,65.050400 
z"/>
<path fill="#2E576B" opacity="1.000000" stroke="none" 
	d="
M223.304901,56.059875 
	C223.114609,55.311562 223.299805,54.679466 223.835419,54.022987 
	C224.017349,54.724434 223.848862,55.450264 223.304901,56.059875 
z"/>
</svg>