<svg width="68" height="29" viewBox="0 0 68 29" fill="none" xmlns="http://www.w3.org/2000/svg">
<path d="M26.8503 21.907L21.1145 22.9183L24.1652 17.3369L24.1689 17.3301L24.1725 17.3231L27.5586 10.64C27.8218 10.1571 27.8941 9.57087 27.8946 9.03933C27.8952 8.49506 27.8198 7.94867 27.7431 7.51388C27.3346 5.19697 25.1252 3.64993 22.8083 4.05846L16.8311 5.1124C15.176 5.40424 14.0709 6.9825 14.3627 8.63755C14.6546 10.2926 16.2328 11.3977 17.8879 11.1059L20.7235 10.6059C21.0575 10.547 21.3109 10.9013 21.1472 11.1983L15.3442 21.7298C14.875 22.5814 14.7112 23.5679 14.88 24.5254C15.2885 26.8423 17.4979 28.3893 19.8148 27.9808L28.1693 26.5077C29.8667 26.2084 30.7597 24.6218 30.4757 23.0111C30.399 22.5759 30.2164 22.2217 29.909 21.9787C29.61 21.7423 29.2524 21.6587 28.9163 21.6393C28.5812 21.62 28.223 21.662 27.8819 21.7176C27.6903 21.7488 27.4764 21.7896 27.2687 21.8291C27.1228 21.8569 26.98 21.8841 26.8503 21.907ZM20.5743 23.0053C20.573 23.0053 20.5724 23.0052 20.5723 23.0052L20.5743 23.0053Z" fill="#26A653" stroke="black"/>
<path d="M0.5 7L0.5 17.0575C0.5 20.6372 3.40192 23.5391 6.98161 23.5391H10.4203C12.1008 23.5391 13.4632 22.1767 13.4632 20.4961C13.4632 18.8155 12.1008 17.4531 10.4203 17.4531H7.10688C6.21266 17.4531 5.48774 16.7282 5.48774 15.834C5.48774 14.9398 6.21266 14.2148 7.10688 14.2148H9.51484C10.9614 14.2148 12.134 13.0422 12.134 11.5957C12.134 10.1492 10.9614 8.97657 9.51484 8.97657H6.68306C6.0229 8.97657 5.48774 8.44141 5.48774 7.78125C5.48774 7.1211 6.0229 6.58594 6.68306 6.58594H12.7577H13.0788C14.7593 6.58594 16.1217 5.22356 16.1217 3.54297C16.1217 1.86238 14.7593 0.5 13.0788 0.5H7C3.41015 0.5 0.5 3.41015 0.5 7Z" fill="#26A653" stroke="black"/>
<path d="M50.575 13.85C49.875 14.05 49.1917 14.2 48.525 14.3C47.8583 14.3833 47.2917 14.4 46.825 14.35C46.525 14.8667 46.2583 15.3417 46.025 15.775C45.8083 16.1917 45.675 16.475 45.625 16.625C45.4583 17.075 45.2833 17.325 45.1 17.375C44.9333 17.4083 44.75 17.35 44.55 17.2C44.3167 17.1 44.2 16.9833 44.2 16.85C44.2 16.7167 44.2917 16.4417 44.475 16.025C44.5083 15.9083 44.6417 15.6417 44.875 15.225C45.125 14.8083 45.4083 14.3333 45.725 13.8C46.0583 13.2667 46.4 12.725 46.75 12.175C47.1167 11.625 47.45 11.15 47.75 10.75C47.8167 10.6667 47.8917 10.5833 47.975 10.5C48.0583 10.4 48.1417 10.3167 48.225 10.25C48.3083 10.1833 48.4083 10.1333 48.525 10.1C48.6417 10.05 48.775 10.025 48.925 10.025C49.375 10.025 49.5583 10.1667 49.475 10.45C49.3917 10.7333 49.2083 11.0083 48.925 11.275C48.725 11.475 48.5083 11.7333 48.275 12.05C48.0583 12.3667 47.8333 12.7167 47.6 13.1C47.8 13.1 48.025 13.1 48.275 13.1C48.5417 13.0833 48.8083 13.0667 49.075 13.05C49.3417 13.05 49.6 13.0417 49.85 13.025C50.1167 12.9917 50.3583 12.9583 50.575 12.925C51.0583 12.8583 51.3917 12.8583 51.575 12.925C51.7583 12.975 51.825 13.0583 51.775 13.175C51.7417 13.2917 51.6083 13.4167 51.375 13.55C51.1583 13.6833 50.8917 13.7833 50.575 13.85ZM41.725 13.975C41.3083 14.3917 40.8583 14.8083 40.375 15.225C39.8917 15.625 39.425 16 38.975 16.35C38.5083 16.7167 38.0833 17.0417 37.7 17.325C37.3333 17.5917 37.05 17.8 36.85 17.95C36.2833 18.3667 35.8667 18.625 35.6 18.725C35.3333 18.8083 35.1917 18.7917 35.175 18.675C35.1583 18.5583 35.25 18.3583 35.45 18.075C35.65 17.7917 35.9417 17.4833 36.325 17.15C36.6417 16.8667 36.9833 16.575 37.35 16.275C37.7333 15.975 38.1083 15.6667 38.475 15.35C38.8583 15.05 39.2333 14.7417 39.6 14.425C39.9667 14.0917 40.3167 13.75 40.65 13.4C41.0333 13.0167 41.3 12.6917 41.45 12.425C41.6 12.1583 41.65 11.9167 41.6 11.7C41.55 11.5 41.4 11.3167 41.15 11.15C40.9167 10.9833 40.6167 10.8 40.25 10.6C39.7167 10.3333 39.1833 10.1 38.65 9.9C38.1333 9.7 37.675 9.55 37.275 9.45C36.5583 9.3 36.175 9.13333 36.125 8.95C36.0917 8.75 36.35 8.45 36.9 8.05C37.1167 7.88333 37.275 7.76667 37.375 7.7C37.4917 7.63333 37.5917 7.59167 37.675 7.575C37.7417 7.575 37.8167 7.6 37.9 7.65C38 7.7 38.15 7.75833 38.35 7.825C38.55 7.90833 38.7583 8 38.975 8.1C39.1917 8.18333 39.425 8.28333 39.675 8.4C39.9083 8.51667 40.1583 8.64167 40.425 8.775C40.6917 8.90833 40.975 9.05 41.275 9.2C42.025 9.63333 42.55 10.05 42.85 10.45C43.15 10.8333 43.2833 11.225 43.25 11.625C43.2167 12.0083 43.05 12.4 42.75 12.8C42.4667 13.1833 42.125 13.575 41.725 13.975ZM66.8348 8.85C66.9014 8.9 66.9764 8.95833 67.0598 9.025C67.1431 9.09167 67.2014 9.175 67.2348 9.275C67.2514 9.39167 67.2181 9.53333 67.1348 9.7C67.0514 9.86667 66.8931 10.0667 66.6598 10.3C66.4598 10.5 66.1514 10.95 65.7348 11.65C65.3348 12.35 64.9181 13.1 64.4848 13.9C64.0348 14.7 63.6264 15.45 63.2598 16.15C62.9098 16.8333 62.6931 17.25 62.6098 17.4C62.3598 17.8333 62.1348 18.1167 61.9348 18.25C61.7514 18.3833 61.6098 18.4083 61.5098 18.325C61.4264 18.2417 61.3931 18.0667 61.4098 17.8C61.4264 17.5167 61.5264 17.1833 61.7098 16.8C61.7764 16.6333 61.9681 16.2083 62.2848 15.525C62.6014 14.8417 62.9598 14.1 63.3598 13.3C63.7431 12.5 64.1264 11.7417 64.5098 11.025C64.8931 10.2917 65.1931 9.78333 65.4098 9.5C65.6264 9.23333 65.8014 9.03333 65.9348 8.9C66.0681 8.76667 66.1848 8.69167 66.2848 8.675C66.3848 8.64167 66.4764 8.65 66.5598 8.7C66.6431 8.75 66.7348 8.8 66.8348 8.85ZM58.2348 14.7C57.3848 15.5167 56.7014 16.1417 56.1848 16.575C55.6681 17.0083 55.2014 17.375 54.7848 17.675C54.2181 18.0917 53.8014 18.35 53.5348 18.45C53.2681 18.5333 53.1264 18.5167 53.1098 18.4C53.0931 18.2833 53.1848 18.0833 53.3848 17.8C53.5848 17.5167 53.8764 17.2083 54.2598 16.875C54.5764 16.5917 54.8431 16.3583 55.0598 16.175C55.2931 15.975 55.5098 15.775 55.7098 15.575C55.8931 15.3917 56.0931 15.1917 56.3098 14.975C56.5431 14.7583 56.8264 14.475 57.1598 14.125C57.5431 13.7417 57.8098 13.4167 57.9598 13.15C58.1098 12.8833 58.1598 12.6417 58.1098 12.425C58.0598 12.225 57.9098 12.0417 57.6598 11.875C57.4264 11.7083 57.1264 11.525 56.7598 11.325C56.2264 11.0583 55.6931 10.825 55.1598 10.625C54.6431 10.425 54.1848 10.275 53.7848 10.175C53.0681 10.025 52.6431 9.85833 52.5098 9.675C52.3931 9.475 52.6098 9.175 53.1598 8.775C53.3764 8.60833 53.5514 8.49167 53.6848 8.425C53.8181 8.35833 53.9431 8.31667 54.0598 8.3C54.1598 8.3 54.2681 8.325 54.3848 8.375C54.5014 8.425 54.6598 8.48333 54.8598 8.55C55.0598 8.63333 55.2681 8.725 55.4848 8.825C55.7014 8.90833 55.9348 9.00833 56.1848 9.125C56.4181 9.225 56.6681 9.34167 56.9348 9.475C57.2014 9.60833 57.4848 9.75 57.7848 9.9C58.5348 10.3333 59.0598 10.75 59.3598 11.15C59.6598 11.55 59.7931 11.9417 59.7598 12.325C59.7264 12.725 59.5598 13.125 59.2598 13.525C58.9764 13.9083 58.6348 14.3 58.2348 14.7Z" fill="#26A653"/>
<path d="M50.575 13.85L50.369 12.8714L50.3343 12.8787L50.3003 12.8885L50.575 13.85ZM48.525 14.3L48.649 15.2923L48.6612 15.2908L48.6733 15.2889L48.525 14.3ZM46.825 14.35L46.9315 13.3557L46.2861 13.2865L45.9602 13.8479L46.825 14.35ZM46.025 15.775L45.1445 15.3009L45.1411 15.3072L45.1378 15.3136L46.025 15.775ZM45.625 16.625L46.5627 16.9723L46.5685 16.9569L46.5737 16.9412L45.625 16.625ZM45.1 17.375L45.2961 18.3556L45.3299 18.3488L45.3631 18.3398L45.1 17.375ZM44.55 17.2L45.15 16.4L45.0541 16.3281L44.9439 16.2809L44.55 17.2ZM44.475 16.025L45.3903 16.4277L45.4178 16.3653L45.4365 16.2997L44.475 16.025ZM44.875 15.225L44.0175 14.7105L44.0098 14.7233L44.0025 14.7364L44.875 15.225ZM45.725 13.8L44.877 13.27L44.871 13.2797L44.8651 13.2895L45.725 13.8ZM46.75 12.175L45.918 11.6203L45.912 11.6291L45.9063 11.6381L46.75 12.175ZM47.75 10.75L46.9691 10.1253L46.9594 10.1375L46.95 10.15L47.75 10.75ZM47.975 10.5L48.6821 11.2071L48.7142 11.175L48.7432 11.1402L47.975 10.5ZM48.225 10.25L47.6003 9.46913L47.6003 9.46913L48.225 10.25ZM48.525 10.1L48.7997 11.0615L48.8607 11.0441L48.9189 11.0191L48.525 10.1ZM49.475 10.45L50.4344 10.7322L50.4344 10.7322L49.475 10.45ZM48.925 11.275L48.2396 10.5468L48.2286 10.5572L48.2179 10.5679L48.925 11.275ZM48.275 12.05L47.4699 11.4568L47.4596 11.4709L47.4497 11.4853L48.275 12.05ZM47.6 13.1L46.7458 12.5801L45.8206 14.1H47.6V13.1ZM48.275 13.1V14.1H48.3062L48.3374 14.0981L48.275 13.1ZM49.075 13.05V12.05H49.0438L49.0126 12.0519L49.075 13.05ZM49.85 13.025L49.9165 14.0228L49.9454 14.0209L49.974 14.0173L49.85 13.025ZM50.575 12.925L50.4384 11.9344L50.4306 11.9354L50.4229 11.9366L50.575 12.925ZM51.575 12.925L51.2333 13.8648L51.2721 13.8789L51.3119 13.8898L51.575 12.925ZM51.775 13.175L50.8559 12.7811L50.8309 12.8393L50.8135 12.9003L51.775 13.175ZM51.375 13.55L50.8789 12.6818L50.8647 12.6898L50.8509 12.6983L51.375 13.55ZM40.375 15.225L41.0126 15.9954L41.0203 15.989L41.0279 15.9824L40.375 15.225ZM38.975 16.35L38.3611 15.5606L38.3572 15.5637L38.975 16.35ZM37.7 17.325L38.2882 18.1338L38.2944 18.1292L37.7 17.325ZM36.85 17.95L37.4424 18.7557L37.45 18.75L36.85 17.95ZM35.6 18.725L35.8983 19.6795L35.925 19.6711L35.9511 19.6613L35.6 18.725ZM35.45 18.075L36.267 18.6517L36.267 18.6517L35.45 18.075ZM36.325 17.15L36.9812 17.9046L36.9865 17.9L36.9918 17.8952L36.325 17.15ZM37.35 16.275L36.7337 15.4875L36.7252 15.4942L36.7168 15.501L37.35 16.275ZM38.475 15.35L37.8587 14.5625L37.8397 14.5774L37.8214 14.5932L38.475 15.35ZM39.6 14.425L40.2536 15.1818L40.2633 15.1735L40.2727 15.1649L39.6 14.425ZM40.65 13.4L39.9429 12.6929L39.9343 12.7015L39.9259 12.7103L40.65 13.4ZM41.6 11.7L42.5744 11.4751L42.5723 11.4663L42.5701 11.4575L41.6 11.7ZM41.15 11.15L40.5688 11.9637L40.5819 11.9731L40.5953 11.982L41.15 11.15ZM40.25 10.6L40.7289 9.7221L40.7132 9.71356L40.6972 9.70557L40.25 10.6ZM38.65 9.9L38.289 10.8326L38.2989 10.8363L38.65 9.9ZM37.275 9.45L37.5175 8.47986L37.4988 8.47517L37.4799 8.47121L37.275 9.45ZM36.125 8.95L35.1386 9.1144L35.1469 9.1643L35.1602 9.21312L36.125 8.95ZM36.9 8.05L37.4882 8.85873L37.499 8.85082L37.5097 8.84262L36.9 8.05ZM37.375 7.7L36.8789 6.83176L36.849 6.84884L36.8203 6.86795L37.375 7.7ZM37.675 7.575V6.575H37.576L37.4789 6.59442L37.675 7.575ZM37.9 7.65L37.3855 8.50749L37.4184 8.52725L37.4528 8.54443L37.9 7.65ZM38.35 7.825L38.7346 6.90192L38.7009 6.88787L38.6662 6.87631L38.35 7.825ZM38.975 8.1L38.5559 9.00796L38.5856 9.02163L38.616 9.03335L38.975 8.1ZM39.675 8.4L40.1222 7.50557L40.1101 7.49953L40.0979 7.49381L39.675 8.4ZM40.425 8.775L39.9778 9.66943L39.9778 9.66943L40.425 8.775ZM41.275 9.2L41.7753 8.33413L41.7492 8.31905L41.7222 8.30557L41.275 9.2ZM42.85 10.45L42.05 11.05L42.0562 11.0582L42.0625 11.0663L42.85 10.45ZM43.25 11.625L44.2462 11.7116L44.2465 11.708L43.25 11.625ZM42.75 12.8L41.95 12.2L41.9458 12.2056L42.75 12.8ZM50.3003 12.8885C49.6385 13.0776 48.9974 13.2179 48.3767 13.3111L48.6733 15.2889C49.3859 15.1821 50.1115 15.0224 50.8497 14.8115L50.3003 12.8885ZM48.401 13.3077C47.781 13.3852 47.2965 13.3948 46.9315 13.3557L46.7185 15.3443C47.2869 15.4052 47.9357 15.3814 48.649 15.2923L48.401 13.3077ZM45.9602 13.8479C45.6559 14.3719 45.3839 14.8564 45.1445 15.3009L46.9055 16.2491C47.1328 15.8269 47.3941 15.3614 47.6898 14.8521L45.9602 13.8479ZM45.1378 15.3136C44.927 15.7189 44.7554 16.0715 44.6763 16.3088L46.5737 16.9412C46.5946 16.8785 46.6896 16.6644 46.9122 16.2364L45.1378 15.3136ZM44.6873 16.2777C44.6546 16.3659 44.6251 16.4345 44.5998 16.4864C44.5741 16.5391 44.5564 16.5666 44.5495 16.5765C44.5417 16.5877 44.5546 16.5663 44.594 16.5332C44.6349 16.499 44.7155 16.4433 44.8369 16.4102L45.3631 18.3398C45.7814 18.2257 46.0425 17.9313 46.188 17.7235C46.3441 17.5004 46.4646 17.2373 46.5627 16.9723L44.6873 16.2777ZM44.9039 16.3944C45.0076 16.3737 45.0926 16.388 45.1407 16.4033C45.1824 16.4166 45.1857 16.4268 45.15 16.4L43.95 18C44.269 18.2392 44.7404 18.4667 45.2961 18.3556L44.9039 16.3944ZM44.9439 16.2809C44.8878 16.2568 44.9279 16.2637 44.9946 16.3304C45.0766 16.4124 45.2 16.5914 45.2 16.85H43.2C43.2 17.655 43.8957 18.0075 44.1561 18.1191L44.9439 16.2809ZM45.2 16.85C45.2 16.9196 45.1896 16.9573 45.1929 16.9425C45.1948 16.934 45.2014 16.908 45.2174 16.86C45.2496 16.7634 45.305 16.6217 45.3903 16.4277L43.5597 15.6223C43.4617 15.8449 43.3795 16.0491 43.3201 16.2275C43.2706 16.376 43.2 16.6099 43.2 16.85H45.2ZM45.4365 16.2997C45.4272 16.3323 45.4219 16.34 45.4358 16.3081C45.4473 16.2818 45.466 16.2415 45.4944 16.1847C45.5513 16.0711 45.6345 15.9153 45.7475 15.7136L44.0025 14.7364C43.8821 14.9513 43.7821 15.1373 43.7056 15.2903C43.6396 15.4222 43.5585 15.5927 43.5135 15.7503L45.4365 16.2997ZM45.7325 15.7395C45.9835 15.3212 46.2676 14.8449 46.5849 14.3105L44.8651 13.2895C44.5491 13.8218 44.2665 14.2955 44.0175 14.7105L45.7325 15.7395ZM46.573 14.33C46.9048 13.799 47.2451 13.2597 47.5937 12.7119L45.9063 11.6381C45.5549 12.1903 45.2118 12.7343 44.877 13.27L46.573 14.33ZM47.5821 12.7297C47.9415 12.1905 48.264 11.7314 48.55 11.35L46.95 10.15C46.636 10.5686 46.2918 11.0595 45.918 11.6203L47.5821 12.7297ZM48.5309 11.3747C48.5723 11.323 48.6222 11.267 48.6821 11.2071L47.2679 9.79289C47.1611 9.89966 47.0611 10.0104 46.9691 10.1253L48.5309 11.3747ZM48.7432 11.1402C48.7926 11.081 48.8288 11.0476 48.8497 11.0309L47.6003 9.46913C47.4546 9.58571 47.3241 9.71902 47.2068 9.85982L48.7432 11.1402ZM48.8497 11.0309C48.8163 11.0576 48.7932 11.0634 48.7997 11.0615L48.2503 9.13848C48.0235 9.20327 47.8004 9.30906 47.6003 9.46913L48.8497 11.0309ZM48.9189 11.0191C48.9055 11.0249 48.8972 11.0265 48.8968 11.0266C48.8967 11.0266 48.9054 11.025 48.925 11.025V9.025C48.6638 9.025 48.3927 9.06872 48.1311 9.18085L48.9189 11.0191ZM48.925 11.025C48.99 11.025 49.0082 11.0306 48.9942 11.0274C48.984 11.0252 48.8954 11.0051 48.7886 10.9225C48.6648 10.8269 48.5575 10.6777 48.5141 10.4931C48.4753 10.3283 48.5041 10.2069 48.5156 10.1678L50.4344 10.7322C50.4875 10.5514 50.5247 10.3061 50.4609 10.035C50.3925 9.74418 50.2269 9.50644 50.0114 9.33996C49.6429 9.05515 49.1938 9.025 48.925 9.025V11.025ZM48.5156 10.1678C48.4959 10.235 48.4336 10.3643 48.2396 10.5468L49.6104 12.0032C49.9831 11.6524 50.2874 11.2317 50.4344 10.7322L48.5156 10.1678ZM48.2179 10.5679C47.9717 10.814 47.7225 11.1141 47.4699 11.4568L49.0801 12.6432C49.2942 12.3526 49.4783 12.136 49.6321 11.9821L48.2179 10.5679ZM47.4497 11.4853C47.2215 11.8188 46.9869 12.184 46.7458 12.5801L48.4542 13.6199C48.6798 13.2493 48.8952 12.9145 49.1003 12.6147L47.4497 11.4853ZM47.6 14.1C47.6004 14.1 47.6008 14.1 47.6012 14.1C47.6016 14.1 47.602 14.1 47.6023 14.1C47.6027 14.1 47.6031 14.1 47.6035 14.1C47.6039 14.1 47.6043 14.1 47.6047 14.1C47.6051 14.1 47.6055 14.1 47.6059 14.1C47.6063 14.1 47.6066 14.1 47.607 14.1C47.6074 14.1 47.6078 14.1 47.6082 14.1C47.6086 14.1 47.609 14.1 47.6094 14.1C47.6098 14.1 47.6102 14.1 47.6106 14.1C47.611 14.1 47.6114 14.1 47.6117 14.1C47.6121 14.1 47.6125 14.1 47.6129 14.1C47.6133 14.1 47.6137 14.1 47.6141 14.1C47.6145 14.1 47.6149 14.1 47.6153 14.1C47.6157 14.1 47.6161 14.1 47.6165 14.1C47.6169 14.1 47.6172 14.1 47.6176 14.1C47.618 14.1 47.6184 14.1 47.6188 14.1C47.6192 14.1 47.6196 14.1 47.62 14.1C47.6204 14.1 47.6208 14.1 47.6212 14.1C47.6216 14.1 47.622 14.1 47.6224 14.1C47.6228 14.1 47.6232 14.1 47.6236 14.1C47.6239 14.1 47.6243 14.1 47.6247 14.1C47.6251 14.1 47.6255 14.1 47.6259 14.1C47.6263 14.1 47.6267 14.1 47.6271 14.1C47.6275 14.1 47.6279 14.1 47.6283 14.1C47.6287 14.1 47.6291 14.1 47.6295 14.1C47.6299 14.1 47.6303 14.1 47.6307 14.1C47.6311 14.1 47.6315 14.1 47.6318 14.1C47.6322 14.1 47.6326 14.1 47.633 14.1C47.6334 14.1 47.6338 14.1 47.6342 14.1C47.6346 14.1 47.635 14.1 47.6354 14.1C47.6358 14.1 47.6362 14.1 47.6366 14.1C47.637 14.1 47.6374 14.1 47.6378 14.1C47.6382 14.1 47.6386 14.1 47.639 14.1C47.6394 14.1 47.6398 14.1 47.6402 14.1C47.6406 14.1 47.641 14.1 47.6414 14.1C47.6418 14.1 47.6422 14.1 47.6426 14.1C47.643 14.1 47.6434 14.1 47.6438 14.1C47.6441 14.1 47.6445 14.1 47.6449 14.1C47.6453 14.1 47.6457 14.1 47.6461 14.1C47.6465 14.1 47.6469 14.1 47.6473 14.1C47.6477 14.1 47.6481 14.1 47.6485 14.1C47.6489 14.1 47.6493 14.1 47.6497 14.1C47.6501 14.1 47.6505 14.1 47.6509 14.1C47.6513 14.1 47.6517 14.1 47.6521 14.1C47.6525 14.1 47.6529 14.1 47.6533 14.1C47.6537 14.1 47.6541 14.1 47.6545 14.1C47.6549 14.1 47.6553 14.1 47.6557 14.1C47.6561 14.1 47.6565 14.1 47.6569 14.1C47.6573 14.1 47.6577 14.1 47.6581 14.1C47.6585 14.1 47.6589 14.1 47.6593 14.1C47.6597 14.1 47.6601 14.1 47.6605 14.1C47.6609 14.1 47.6613 14.1 47.6617 14.1C47.6621 14.1 47.6625 14.1 47.6629 14.1C47.6633 14.1 47.6637 14.1 47.6641 14.1C47.6645 14.1 47.6649 14.1 47.6653 14.1C47.6657 14.1 47.6661 14.1 47.6665 14.1C47.6669 14.1 47.6673 14.1 47.6677 14.1C47.6681 14.1 47.6685 14.1 47.6689 14.1C47.6693 14.1 47.6697 14.1 47.6701 14.1C47.6705 14.1 47.6709 14.1 47.6713 14.1C47.6717 14.1 47.6721 14.1 47.6725 14.1C47.673 14.1 47.6734 14.1 47.6738 14.1C47.6742 14.1 47.6746 14.1 47.675 14.1C47.6754 14.1 47.6758 14.1 47.6762 14.1C47.6766 14.1 47.677 14.1 47.6774 14.1C47.6778 14.1 47.6782 14.1 47.6786 14.1C47.679 14.1 47.6794 14.1 47.6798 14.1C47.6802 14.1 47.6806 14.1 47.681 14.1C47.6814 14.1 47.6818 14.1 47.6822 14.1C47.6826 14.1 47.683 14.1 47.6834 14.1C47.6838 14.1 47.6842 14.1 47.6846 14.1C47.685 14.1 47.6855 14.1 47.6859 14.1C47.6863 14.1 47.6867 14.1 47.6871 14.1C47.6875 14.1 47.6879 14.1 47.6883 14.1C47.6887 14.1 47.6891 14.1 47.6895 14.1C47.6899 14.1 47.6903 14.1 47.6907 14.1C47.6911 14.1 47.6915 14.1 47.6919 14.1C47.6923 14.1 47.6927 14.1 47.6931 14.1C47.6936 14.1 47.694 14.1 47.6944 14.1C47.6948 14.1 47.6952 14.1 47.6956 14.1C47.696 14.1 47.6964 14.1 47.6968 14.1C47.6972 14.1 47.6976 14.1 47.698 14.1C47.6984 14.1 47.6988 14.1 47.6992 14.1C47.6996 14.1 47.7 14.1 47.7005 14.1C47.7009 14.1 47.7013 14.1 47.7017 14.1C47.7021 14.1 47.7025 14.1 47.7029 14.1C47.7033 14.1 47.7037 14.1 47.7041 14.1C47.7045 14.1 47.7049 14.1 47.7053 14.1C47.7057 14.1 47.7062 14.1 47.7066 14.1C47.707 14.1 47.7074 14.1 47.7078 14.1C47.7082 14.1 47.7086 14.1 47.709 14.1C47.7094 14.1 47.7098 14.1 47.7102 14.1C47.7106 14.1 47.7111 14.1 47.7115 14.1C47.7119 14.1 47.7123 14.1 47.7127 14.1C47.7131 14.1 47.7135 14.1 47.7139 14.1C47.7143 14.1 47.7147 14.1 47.7151 14.1C47.7155 14.1 47.716 14.1 47.7164 14.1C47.7168 14.1 47.7172 14.1 47.7176 14.1C47.718 14.1 47.7184 14.1 47.7188 14.1C47.7192 14.1 47.7196 14.1 47.72 14.1C47.7205 14.1 47.7209 14.1 47.7213 14.1C47.7217 14.1 47.7221 14.1 47.7225 14.1C47.7229 14.1 47.7233 14.1 47.7237 14.1C47.7241 14.1 47.7246 14.1 47.725 14.1C47.7254 14.1 47.7258 14.1 47.7262 14.1C47.7266 14.1 47.727 14.1 47.7274 14.1C47.7278 14.1 47.7283 14.1 47.7287 14.1C47.7291 14.1 47.7295 14.1 47.7299 14.1C47.7303 14.1 47.7307 14.1 47.7311 14.1C47.7315 14.1 47.732 14.1 47.7324 14.1C47.7328 14.1 47.7332 14.1 47.7336 14.1C47.734 14.1 47.7344 14.1 47.7348 14.1C47.7353 14.1 47.7357 14.1 47.7361 14.1C47.7365 14.1 47.7369 14.1 47.7373 14.1C47.7377 14.1 47.7381 14.1 47.7385 14.1C47.739 14.1 47.7394 14.1 47.7398 14.1C47.7402 14.1 47.7406 14.1 47.741 14.1C47.7414 14.1 47.7419 14.1 47.7423 14.1C47.7427 14.1 47.7431 14.1 47.7435 14.1C47.7439 14.1 47.7443 14.1 47.7447 14.1C47.7452 14.1 47.7456 14.1 47.746 14.1C47.7464 14.1 47.7468 14.1 47.7472 14.1C47.7476 14.1 47.7481 14.1 47.7485 14.1C47.7489 14.1 47.7493 14.1 47.7497 14.1C47.7501 14.1 47.7505 14.1 47.751 14.1C47.7514 14.1 47.7518 14.1 47.7522 14.1C47.7526 14.1 47.753 14.1 47.7534 14.1C47.7539 14.1 47.7543 14.1 47.7547 14.1C47.7551 14.1 47.7555 14.1 47.7559 14.1C47.7563 14.1 47.7568 14.1 47.7572 14.1C47.7576 14.1 47.758 14.1 47.7584 14.1C47.7588 14.1 47.7593 14.1 47.7597 14.1C47.7601 14.1 47.7605 14.1 47.7609 14.1C47.7613 14.1 47.7618 14.1 47.7622 14.1C47.7626 14.1 47.763 14.1 47.7634 14.1C47.7638 14.1 47.7643 14.1 47.7647 14.1C47.7651 14.1 47.7655 14.1 47.7659 14.1C47.7663 14.1 47.7668 14.1 47.7672 14.1C47.7676 14.1 47.768 14.1 47.7684 14.1C47.7688 14.1 47.7693 14.1 47.7697 14.1C47.7701 14.1 47.7705 14.1 47.7709 14.1C47.7713 14.1 47.7718 14.1 47.7722 14.1C47.7726 14.1 47.773 14.1 47.7734 14.1C47.7738 14.1 47.7743 14.1 47.7747 14.1C47.7751 14.1 47.7755 14.1 47.7759 14.1C47.7764 14.1 47.7768 14.1 47.7772 14.1C47.7776 14.1 47.778 14.1 47.7784 14.1C47.7789 14.1 47.7793 14.1 47.7797 14.1C47.7801 14.1 47.7805 14.1 47.781 14.1C47.7814 14.1 47.7818 14.1 47.7822 14.1C47.7826 14.1 47.7831 14.1 47.7835 14.1C47.7839 14.1 47.7843 14.1 47.7847 14.1C47.7852 14.1 47.7856 14.1 47.786 14.1C47.7864 14.1 47.7868 14.1 47.7873 14.1C47.7877 14.1 47.7881 14.1 47.7885 14.1C47.7889 14.1 47.7894 14.1 47.7898 14.1C47.7902 14.1 47.7906 14.1 47.791 14.1C47.7915 14.1 47.7919 14.1 47.7923 14.1C47.7927 14.1 47.7931 14.1 47.7936 14.1C47.794 14.1 47.7944 14.1 47.7948 14.1C47.7952 14.1 47.7957 14.1 47.7961 14.1C47.7965 14.1 47.7969 14.1 47.7974 14.1C47.7978 14.1 47.7982 14.1 47.7986 14.1C47.799 14.1 47.7995 14.1 47.7999 14.1C47.8003 14.1 47.8007 14.1 47.8011 14.1C47.8016 14.1 47.802 14.1 47.8024 14.1C47.8028 14.1 47.8033 14.1 47.8037 14.1C47.8041 14.1 47.8045 14.1 47.805 14.1C47.8054 14.1 47.8058 14.1 47.8062 14.1C47.8066 14.1 47.8071 14.1 47.8075 14.1C47.8079 14.1 47.8083 14.1 47.8088 14.1C47.8092 14.1 47.8096 14.1 47.81 14.1C47.8105 14.1 47.8109 14.1 47.8113 14.1C47.8117 14.1 47.8121 14.1 47.8126 14.1C47.813 14.1 47.8134 14.1 47.8138 14.1C47.8143 14.1 47.8147 14.1 47.8151 14.1C47.8155 14.1 47.816 14.1 47.8164 14.1C47.8168 14.1 47.8172 14.1 47.8177 14.1C47.8181 14.1 47.8185 14.1 47.8189 14.1C47.8194 14.1 47.8198 14.1 47.8202 14.1C47.8206 14.1 47.8211 14.1 47.8215 14.1C47.8219 14.1 47.8223 14.1 47.8228 14.1C47.8232 14.1 47.8236 14.1 47.824 14.1C47.8245 14.1 47.8249 14.1 47.8253 14.1C47.8257 14.1 47.8262 14.1 47.8266 14.1C47.827 14.1 47.8274 14.1 47.8279 14.1C47.8283 14.1 47.8287 14.1 47.8291 14.1C47.8296 14.1 47.83 14.1 47.8304 14.1C47.8309 14.1 47.8313 14.1 47.8317 14.1C47.8321 14.1 47.8326 14.1 47.833 14.1C47.8334 14.1 47.8338 14.1 47.8343 14.1C47.8347 14.1 47.8351 14.1 47.8355 14.1C47.836 14.1 47.8364 14.1 47.8368 14.1C47.8373 14.1 47.8377 14.1 47.8381 14.1C47.8385 14.1 47.839 14.1 47.8394 14.1C47.8398 14.1 47.8403 14.1 47.8407 14.1C47.8411 14.1 47.8415 14.1 47.842 14.1C47.8424 14.1 47.8428 14.1 47.8432 14.1C47.8437 14.1 47.8441 14.1 47.8445 14.1C47.845 14.1 47.8454 14.1 47.8458 14.1C47.8462 14.1 47.8467 14.1 47.8471 14.1C47.8475 14.1 47.848 14.1 47.8484 14.1C47.8488 14.1 47.8493 14.1 47.8497 14.1C47.8501 14.1 47.8505 14.1 47.851 14.1C47.8514 14.1 47.8518 14.1 47.8523 14.1C47.8527 14.1 47.8531 14.1 47.8535 14.1C47.854 14.1 47.8544 14.1 47.8548 14.1C47.8553 14.1 47.8557 14.1 47.8561 14.1C47.8566 14.1 47.857 14.1 47.8574 14.1C47.8579 14.1 47.8583 14.1 47.8587 14.1C47.8591 14.1 47.8596 14.1 47.86 14.1C47.8604 14.1 47.8609 14.1 47.8613 14.1C47.8617 14.1 47.8622 14.1 47.8626 14.1C47.863 14.1 47.8635 14.1 47.8639 14.1C47.8643 14.1 47.8647 14.1 47.8652 14.1C47.8656 14.1 47.866 14.1 47.8665 14.1C47.8669 14.1 47.8673 14.1 47.8678 14.1C47.8682 14.1 47.8686 14.1 47.8691 14.1C47.8695 14.1 47.8699 14.1 47.8704 14.1C47.8708 14.1 47.8712 14.1 47.8717 14.1C47.8721 14.1 47.8725 14.1 47.873 14.1C47.8734 14.1 47.8738 14.1 47.8743 14.1C47.8747 14.1 47.8751 14.1 47.8756 14.1C47.876 14.1 47.8764 14.1 47.8769 14.1C47.8773 14.1 47.8777 14.1 47.8782 14.1C47.8786 14.1 47.879 14.1 47.8795 14.1C47.8799 14.1 47.8803 14.1 47.8808 14.1C47.8812 14.1 47.8816 14.1 47.8821 14.1C47.8825 14.1 47.8829 14.1 47.8834 14.1C47.8838 14.1 47.8842 14.1 47.8847 14.1C47.8851 14.1 47.8855 14.1 47.886 14.1C47.8864 14.1 47.8868 14.1 47.8873 14.1C47.8877 14.1 47.8881 14.1 47.8886 14.1C47.889 14.1 47.8894 14.1 47.8899 14.1C47.8903 14.1 47.8908 14.1 47.8912 14.1C47.8916 14.1 47.8921 14.1 47.8925 14.1C47.8929 14.1 47.8934 14.1 47.8938 14.1C47.8942 14.1 47.8947 14.1 47.8951 14.1C47.8955 14.1 47.896 14.1 47.8964 14.1C47.8969 14.1 47.8973 14.1 47.8977 14.1C47.8982 14.1 47.8986 14.1 47.899 14.1C47.8995 14.1 47.8999 14.1 47.9003 14.1C47.9008 14.1 47.9012 14.1 47.9017 14.1C47.9021 14.1 47.9025 14.1 47.903 14.1C47.9034 14.1 47.9038 14.1 47.9043 14.1C47.9047 14.1 47.9052 14.1 47.9056 14.1C47.906 14.1 47.9065 14.1 47.9069 14.1C47.9073 14.1 47.9078 14.1 47.9082 14.1C47.9087 14.1 47.9091 14.1 47.9095 14.1C47.91 14.1 47.9104 14.1 47.9109 14.1C47.9113 14.1 47.9117 14.1 47.9122 14.1C47.9126 14.1 47.913 14.1 47.9135 14.1C47.9139 14.1 47.9144 14.1 47.9148 14.1C47.9152 14.1 47.9157 14.1 47.9161 14.1C47.9166 14.1 47.917 14.1 47.9174 14.1C47.9179 14.1 47.9183 14.1 47.9188 14.1C47.9192 14.1 47.9196 14.1 47.9201 14.1C47.9205 14.1 47.9209 14.1 47.9214 14.1C47.9218 14.1 47.9223 14.1 47.9227 14.1C47.9231 14.1 47.9236 14.1 47.924 14.1C47.9245 14.1 47.9249 14.1 47.9253 14.1C47.9258 14.1 47.9262 14.1 47.9267 14.1C47.9271 14.1 47.9276 14.1 47.928 14.1C47.9284 14.1 47.9289 14.1 47.9293 14.1C47.9298 14.1 47.9302 14.1 47.9306 14.1C47.9311 14.1 47.9315 14.1 47.932 14.1C47.9324 14.1 47.9328 14.1 47.9333 14.1C47.9337 14.1 47.9342 14.1 47.9346 14.1C47.9351 14.1 47.9355 14.1 47.9359 14.1C47.9364 14.1 47.9368 14.1 47.9373 14.1C47.9377 14.1 47.9381 14.1 47.9386 14.1C47.939 14.1 47.9395 14.1 47.9399 14.1C47.9404 14.1 47.9408 14.1 47.9412 14.1C47.9417 14.1 47.9421 14.1 47.9426 14.1C47.943 14.1 47.9435 14.1 47.9439 14.1C47.9443 14.1 47.9448 14.1 47.9452 14.1C47.9457 14.1 47.9461 14.1 47.9466 14.1C47.947 14.1 47.9474 14.1 47.9479 14.1C47.9483 14.1 47.9488 14.1 47.9492 14.1C47.9497 14.1 47.9501 14.1 47.9506 14.1C47.951 14.1 47.9514 14.1 47.9519 14.1C47.9523 14.1 47.9528 14.1 47.9532 14.1C47.9537 14.1 47.9541 14.1 47.9546 14.1C47.955 14.1 47.9554 14.1 47.9559 14.1C47.9563 14.1 47.9568 14.1 47.9572 14.1C47.9577 14.1 47.9581 14.1 47.9586 14.1C47.959 14.1 47.9594 14.1 47.9599 14.1C47.9603 14.1 47.9608 14.1 47.9612 14.1C47.9617 14.1 47.9621 14.1 47.9626 14.1C47.963 14.1 47.9635 14.1 47.9639 14.1C47.9644 14.1 47.9648 14.1 47.9652 14.1C47.9657 14.1 47.9661 14.1 47.9666 14.1C47.967 14.1 47.9675 14.1 47.9679 14.1C47.9684 14.1 47.9688 14.1 47.9693 14.1C47.9697 14.1 47.9702 14.1 47.9706 14.1C47.971 14.1 47.9715 14.1 47.9719 14.1C47.9724 14.1 47.9728 14.1 47.9733 14.1C47.9737 14.1 47.9742 14.1 47.9746 14.1C47.9751 14.1 47.9755 14.1 47.976 14.1C47.9764 14.1 47.9769 14.1 47.9773 14.1C47.9778 14.1 47.9782 14.1 47.9787 14.1C47.9791 14.1 47.9796 14.1 47.98 14.1C47.9804 14.1 47.9809 14.1 47.9813 14.1C47.9818 14.1 47.9822 14.1 47.9827 14.1C47.9831 14.1 47.9836 14.1 47.984 14.1C47.9845 14.1 47.9849 14.1 47.9854 14.1C47.9858 14.1 47.9863 14.1 47.9867 14.1C47.9872 14.1 47.9876 14.1 47.9881 14.1C47.9885 14.1 47.989 14.1 47.9894 14.1C47.9899 14.1 47.9903 14.1 47.9908 14.1C47.9912 14.1 47.9917 14.1 47.9921 14.1C47.9926 14.1 47.993 14.1 47.9935 14.1C47.9939 14.1 47.9944 14.1 47.9948 14.1C47.9953 14.1 47.9957 14.1 47.9962 14.1C47.9966 14.1 47.9971 14.1 47.9975 14.1C47.998 14.1 47.9984 14.1 47.9989 14.1C47.9993 14.1 47.9998 14.1 48.0002 14.1C48.0007 14.1 48.0011 14.1 48.0016 14.1C48.002 14.1 48.0025 14.1 48.0029 14.1C48.0034 14.1 48.0038 14.1 48.0043 14.1C48.0047 14.1 48.0052 14.1 48.0057 14.1C48.0061 14.1 48.0066 14.1 48.007 14.1C48.0075 14.1 48.0079 14.1 48.0084 14.1C48.0088 14.1 48.0093 14.1 48.0097 14.1C48.0102 14.1 48.0106 14.1 48.0111 14.1C48.0115 14.1 48.012 14.1 48.0124 14.1C48.0129 14.1 48.0133 14.1 48.0138 14.1C48.0142 14.1 48.0147 14.1 48.0152 14.1C48.0156 14.1 48.0161 14.1 48.0165 14.1C48.017 14.1 48.0174 14.1 48.0179 14.1C48.0183 14.1 48.0188 14.1 48.0192 14.1C48.0197 14.1 48.0201 14.1 48.0206 14.1C48.0211 14.1 48.0215 14.1 48.022 14.1C48.0224 14.1 48.0229 14.1 48.0233 14.1C48.0238 14.1 48.0242 14.1 48.0247 14.1C48.0251 14.1 48.0256 14.1 48.0261 14.1C48.0265 14.1 48.027 14.1 48.0274 14.1C48.0279 14.1 48.0283 14.1 48.0288 14.1C48.0292 14.1 48.0297 14.1 48.0301 14.1C48.0306 14.1 48.0311 14.1 48.0315 14.1C48.032 14.1 48.0324 14.1 48.0329 14.1C48.0333 14.1 48.0338 14.1 48.0342 14.1C48.0347 14.1 48.0352 14.1 48.0356 14.1C48.0361 14.1 48.0365 14.1 48.037 14.1C48.0374 14.1 48.0379 14.1 48.0384 14.1C48.0388 14.1 48.0393 14.1 48.0397 14.1C48.0402 14.1 48.0406 14.1 48.0411 14.1C48.0415 14.1 48.042 14.1 48.0425 14.1C48.0429 14.1 48.0434 14.1 48.0438 14.1C48.0443 14.1 48.0447 14.1 48.0452 14.1C48.0457 14.1 48.0461 14.1 48.0466 14.1C48.047 14.1 48.0475 14.1 48.0479 14.1C48.0484 14.1 48.0489 14.1 48.0493 14.1C48.0498 14.1 48.0502 14.1 48.0507 14.1C48.0512 14.1 48.0516 14.1 48.0521 14.1C48.0525 14.1 48.053 14.1 48.0534 14.1C48.0539 14.1 48.0544 14.1 48.0548 14.1C48.0553 14.1 48.0557 14.1 48.0562 14.1C48.0567 14.1 48.0571 14.1 48.0576 14.1C48.058 14.1 48.0585 14.1 48.059 14.1C48.0594 14.1 48.0599 14.1 48.0603 14.1C48.0608 14.1 48.0613 14.1 48.0617 14.1C48.0622 14.1 48.0626 14.1 48.0631 14.1C48.0636 14.1 48.064 14.1 48.0645 14.1C48.0649 14.1 48.0654 14.1 48.0659 14.1C48.0663 14.1 48.0668 14.1 48.0672 14.1C48.0677 14.1 48.0682 14.1 48.0686 14.1C48.0691 14.1 48.0695 14.1 48.07 14.1C48.0705 14.1 48.0709 14.1 48.0714 14.1C48.0718 14.1 48.0723 14.1 48.0728 14.1C48.0732 14.1 48.0737 14.1 48.0741 14.1C48.0746 14.1 48.0751 14.1 48.0755 14.1C48.076 14.1 48.0765 14.1 48.0769 14.1C48.0774 14.1 48.0778 14.1 48.0783 14.1C48.0788 14.1 48.0792 14.1 48.0797 14.1C48.0801 14.1 48.0806 14.1 48.0811 14.1C48.0815 14.1 48.082 14.1 48.0825 14.1C48.0829 14.1 48.0834 14.1 48.0838 14.1C48.0843 14.1 48.0848 14.1 48.0852 14.1C48.0857 14.1 48.0862 14.1 48.0866 14.1C48.0871 14.1 48.0876 14.1 48.088 14.1C48.0885 14.1 48.0889 14.1 48.0894 14.1C48.0899 14.1 48.0903 14.1 48.0908 14.1C48.0913 14.1 48.0917 14.1 48.0922 14.1C48.0927 14.1 48.0931 14.1 48.0936 14.1C48.094 14.1 48.0945 14.1 48.095 14.1C48.0954 14.1 48.0959 14.1 48.0964 14.1C48.0968 14.1 48.0973 14.1 48.0978 14.1C48.0982 14.1 48.0987 14.1 48.0992 14.1C48.0996 14.1 48.1001 14.1 48.1005 14.1C48.101 14.1 48.1015 14.1 48.1019 14.1C48.1024 14.1 48.1029 14.1 48.1033 14.1C48.1038 14.1 48.1043 14.1 48.1047 14.1C48.1052 14.1 48.1057 14.1 48.1061 14.1C48.1066 14.1 48.1071 14.1 48.1075 14.1C48.108 14.1 48.1085 14.1 48.1089 14.1C48.1094 14.1 48.1099 14.1 48.1103 14.1C48.1108 14.1 48.1113 14.1 48.1117 14.1C48.1122 14.1 48.1127 14.1 48.1131 14.1C48.1136 14.1 48.1141 14.1 48.1145 14.1C48.115 14.1 48.1155 14.1 48.1159 14.1C48.1164 14.1 48.1169 14.1 48.1173 14.1C48.1178 14.1 48.1183 14.1 48.1187 14.1C48.1192 14.1 48.1197 14.1 48.1201 14.1C48.1206 14.1 48.1211 14.1 48.1215 14.1C48.122 14.1 48.1225 14.1 48.1229 14.1C48.1234 14.1 48.1239 14.1 48.1243 14.1C48.1248 14.1 48.1253 14.1 48.1258 14.1C48.1262 14.1 48.1267 14.1 48.1272 14.1C48.1276 14.1 48.1281 14.1 48.1286 14.1C48.129 14.1 48.1295 14.1 48.13 14.1C48.1304 14.1 48.1309 14.1 48.1314 14.1C48.1318 14.1 48.1323 14.1 48.1328 14.1C48.1333 14.1 48.1337 14.1 48.1342 14.1C48.1347 14.1 48.1351 14.1 48.1356 14.1C48.1361 14.1 48.1365 14.1 48.137 14.1C48.1375 14.1 48.138 14.1 48.1384 14.1C48.1389 14.1 48.1394 14.1 48.1398 14.1C48.1403 14.1 48.1408 14.1 48.1412 14.1C48.1417 14.1 48.1422 14.1 48.1427 14.1C48.1431 14.1 48.1436 14.1 48.1441 14.1C48.1445 14.1 48.145 14.1 48.1455 14.1C48.146 14.1 48.1464 14.1 48.1469 14.1C48.1474 14.1 48.1478 14.1 48.1483 14.1C48.1488 14.1 48.1493 14.1 48.1497 14.1C48.1502 14.1 48.1507 14.1 48.1511 14.1C48.1516 14.1 48.1521 14.1 48.1526 14.1C48.153 14.1 48.1535 14.1 48.154 14.1C48.1544 14.1 48.1549 14.1 48.1554 14.1C48.1559 14.1 48.1563 14.1 48.1568 14.1C48.1573 14.1 48.1578 14.1 48.1582 14.1C48.1587 14.1 48.1592 14.1 48.1596 14.1C48.1601 14.1 48.1606 14.1 48.1611 14.1C48.1615 14.1 48.162 14.1 48.1625 14.1C48.163 14.1 48.1634 14.1 48.1639 14.1C48.1644 14.1 48.1649 14.1 48.1653 14.1C48.1658 14.1 48.1663 14.1 48.1667 14.1C48.1672 14.1 48.1677 14.1 48.1682 14.1C48.1686 14.1 48.1691 14.1 48.1696 14.1C48.1701 14.1 48.1705 14.1 48.171 14.1C48.1715 14.1 48.172 14.1 48.1724 14.1C48.1729 14.1 48.1734 14.1 48.1739 14.1C48.1743 14.1 48.1748 14.1 48.1753 14.1C48.1758 14.1 48.1762 14.1 48.1767 14.1C48.1772 14.1 48.1777 14.1 48.1781 14.1C48.1786 14.1 48.1791 14.1 48.1796 14.1C48.18 14.1 48.1805 14.1 48.181 14.1C48.1815 14.1 48.1819 14.1 48.1824 14.1C48.1829 14.1 48.1834 14.1 48.1839 14.1C48.1843 14.1 48.1848 14.1 48.1853 14.1C48.1858 14.1 48.1862 14.1 48.1867 14.1C48.1872 14.1 48.1877 14.1 48.1881 14.1C48.1886 14.1 48.1891 14.1 48.1896 14.1C48.19 14.1 48.1905 14.1 48.191 14.1C48.1915 14.1 48.192 14.1 48.1924 14.1C48.1929 14.1 48.1934 14.1 48.1939 14.1C48.1943 14.1 48.1948 14.1 48.1953 14.1C48.1958 14.1 48.1963 14.1 48.1967 14.1C48.1972 14.1 48.1977 14.1 48.1982 14.1C48.1986 14.1 48.1991 14.1 48.1996 14.1C48.2001 14.1 48.2006 14.1 48.201 14.1C48.2015 14.1 48.202 14.1 48.2025 14.1C48.203 14.1 48.2034 14.1 48.2039 14.1C48.2044 14.1 48.2049 14.1 48.2053 14.1C48.2058 14.1 48.2063 14.1 48.2068 14.1C48.2073 14.1 48.2077 14.1 48.2082 14.1C48.2087 14.1 48.2092 14.1 48.2097 14.1C48.2101 14.1 48.2106 14.1 48.2111 14.1C48.2116 14.1 48.2121 14.1 48.2125 14.1C48.213 14.1 48.2135 14.1 48.214 14.1C48.2145 14.1 48.2149 14.1 48.2154 14.1C48.2159 14.1 48.2164 14.1 48.2169 14.1C48.2173 14.1 48.2178 14.1 48.2183 14.1C48.2188 14.1 48.2193 14.1 48.2197 14.1C48.2202 14.1 48.2207 14.1 48.2212 14.1C48.2217 14.1 48.2222 14.1 48.2226 14.1C48.2231 14.1 48.2236 14.1 48.2241 14.1C48.2246 14.1 48.225 14.1 48.2255 14.1C48.226 14.1 48.2265 14.1 48.227 14.1C48.2275 14.1 48.2279 14.1 48.2284 14.1C48.2289 14.1 48.2294 14.1 48.2299 14.1C48.2303 14.1 48.2308 14.1 48.2313 14.1C48.2318 14.1 48.2323 14.1 48.2328 14.1C48.2332 14.1 48.2337 14.1 48.2342 14.1C48.2347 14.1 48.2352 14.1 48.2357 14.1C48.2361 14.1 48.2366 14.1 48.2371 14.1C48.2376 14.1 48.2381 14.1 48.2386 14.1C48.239 14.1 48.2395 14.1 48.24 14.1C48.2405 14.1 48.241 14.1 48.2415 14.1C48.2419 14.1 48.2424 14.1 48.2429 14.1C48.2434 14.1 48.2439 14.1 48.2444 14.1C48.2448 14.1 48.2453 14.1 48.2458 14.1C48.2463 14.1 48.2468 14.1 48.2473 14.1C48.2478 14.1 48.2482 14.1 48.2487 14.1C48.2492 14.1 48.2497 14.1 48.2502 14.1C48.2507 14.1 48.2512 14.1 48.2516 14.1C48.2521 14.1 48.2526 14.1 48.2531 14.1C48.2536 14.1 48.2541 14.1 48.2545 14.1C48.255 14.1 48.2555 14.1 48.256 14.1C48.2565 14.1 48.257 14.1 48.2575 14.1C48.2579 14.1 48.2584 14.1 48.2589 14.1C48.2594 14.1 48.2599 14.1 48.2604 14.1C48.2609 14.1 48.2614 14.1 48.2618 14.1C48.2623 14.1 48.2628 14.1 48.2633 14.1C48.2638 14.1 48.2643 14.1 48.2648 14.1C48.2652 14.1 48.2657 14.1 48.2662 14.1C48.2667 14.1 48.2672 14.1 48.2677 14.1C48.2682 14.1 48.2687 14.1 48.2691 14.1C48.2696 14.1 48.2701 14.1 48.2706 14.1C48.2711 14.1 48.2716 14.1 48.2721 14.1C48.2726 14.1 48.273 14.1 48.2735 14.1C48.274 14.1 48.2745 14.1 48.275 14.1V12.1C48.2745 12.1 48.274 12.1 48.2735 12.1C48.273 12.1 48.2726 12.1 48.2721 12.1C48.2716 12.1 48.2711 12.1 48.2706 12.1C48.2701 12.1 48.2696 12.1 48.2691 12.1C48.2687 12.1 48.2682 12.1 48.2677 12.1C48.2672 12.1 48.2667 12.1 48.2662 12.1C48.2657 12.1 48.2652 12.1 48.2648 12.1C48.2643 12.1 48.2638 12.1 48.2633 12.1C48.2628 12.1 48.2623 12.1 48.2618 12.1C48.2614 12.1 48.2609 12.1 48.2604 12.1C48.2599 12.1 48.2594 12.1 48.2589 12.1C48.2584 12.1 48.2579 12.1 48.2575 12.1C48.257 12.1 48.2565 12.1 48.256 12.1C48.2555 12.1 48.255 12.1 48.2545 12.1C48.2541 12.1 48.2536 12.1 48.2531 12.1C48.2526 12.1 48.2521 12.1 48.2516 12.1C48.2512 12.1 48.2507 12.1 48.2502 12.1C48.2497 12.1 48.2492 12.1 48.2487 12.1C48.2482 12.1 48.2478 12.1 48.2473 12.1C48.2468 12.1 48.2463 12.1 48.2458 12.1C48.2453 12.1 48.2448 12.1 48.2444 12.1C48.2439 12.1 48.2434 12.1 48.2429 12.1C48.2424 12.1 48.2419 12.1 48.2415 12.1C48.241 12.1 48.2405 12.1 48.24 12.1C48.2395 12.1 48.239 12.1 48.2386 12.1C48.2381 12.1 48.2376 12.1 48.2371 12.1C48.2366 12.1 48.2361 12.1 48.2357 12.1C48.2352 12.1 48.2347 12.1 48.2342 12.1C48.2337 12.1 48.2332 12.1 48.2328 12.1C48.2323 12.1 48.2318 12.1 48.2313 12.1C48.2308 12.1 48.2303 12.1 48.2299 12.1C48.2294 12.1 48.2289 12.1 48.2284 12.1C48.2279 12.1 48.2275 12.1 48.227 12.1C48.2265 12.1 48.226 12.1 48.2255 12.1C48.225 12.1 48.2246 12.1 48.2241 12.1C48.2236 12.1 48.2231 12.1 48.2226 12.1C48.2222 12.1 48.2217 12.1 48.2212 12.1C48.2207 12.1 48.2202 12.1 48.2197 12.1C48.2193 12.1 48.2188 12.1 48.2183 12.1C48.2178 12.1 48.2173 12.1 48.2169 12.1C48.2164 12.1 48.2159 12.1 48.2154 12.1C48.2149 12.1 48.2145 12.1 48.214 12.1C48.2135 12.1 48.213 12.1 48.2125 12.1C48.2121 12.1 48.2116 12.1 48.2111 12.1C48.2106 12.1 48.2101 12.1 48.2097 12.1C48.2092 12.1 48.2087 12.1 48.2082 12.1C48.2077 12.1 48.2073 12.1 48.2068 12.1C48.2063 12.1 48.2058 12.1 48.2053 12.1C48.2049 12.1 48.2044 12.1 48.2039 12.1C48.2034 12.1 48.203 12.1 48.2025 12.1C48.202 12.1 48.2015 12.1 48.201 12.1C48.2006 12.1 48.2001 12.1 48.1996 12.1C48.1991 12.1 48.1986 12.1 48.1982 12.1C48.1977 12.1 48.1972 12.1 48.1967 12.1C48.1963 12.1 48.1958 12.1 48.1953 12.1C48.1948 12.1 48.1943 12.1 48.1939 12.1C48.1934 12.1 48.1929 12.1 48.1924 12.1C48.192 12.1 48.1915 12.1 48.191 12.1C48.1905 12.1 48.19 12.1 48.1896 12.1C48.1891 12.1 48.1886 12.1 48.1881 12.1C48.1877 12.1 48.1872 12.1 48.1867 12.1C48.1862 12.1 48.1858 12.1 48.1853 12.1C48.1848 12.1 48.1843 12.1 48.1839 12.1C48.1834 12.1 48.1829 12.1 48.1824 12.1C48.1819 12.1 48.1815 12.1 48.181 12.1C48.1805 12.1 48.18 12.1 48.1796 12.1C48.1791 12.1 48.1786 12.1 48.1781 12.1C48.1777 12.1 48.1772 12.1 48.1767 12.1C48.1762 12.1 48.1758 12.1 48.1753 12.1C48.1748 12.1 48.1743 12.1 48.1739 12.1C48.1734 12.1 48.1729 12.1 48.1724 12.1C48.172 12.1 48.1715 12.1 48.171 12.1C48.1705 12.1 48.1701 12.1 48.1696 12.1C48.1691 12.1 48.1686 12.1 48.1682 12.1C48.1677 12.1 48.1672 12.1 48.1667 12.1C48.1663 12.1 48.1658 12.1 48.1653 12.1C48.1649 12.1 48.1644 12.1 48.1639 12.1C48.1634 12.1 48.163 12.1 48.1625 12.1C48.162 12.1 48.1615 12.1 48.1611 12.1C48.1606 12.1 48.1601 12.1 48.1596 12.1C48.1592 12.1 48.1587 12.1 48.1582 12.1C48.1578 12.1 48.1573 12.1 48.1568 12.1C48.1563 12.1 48.1559 12.1 48.1554 12.1C48.1549 12.1 48.1544 12.1 48.154 12.1C48.1535 12.1 48.153 12.1 48.1526 12.1C48.1521 12.1 48.1516 12.1 48.1511 12.1C48.1507 12.1 48.1502 12.1 48.1497 12.1C48.1493 12.1 48.1488 12.1 48.1483 12.1C48.1478 12.1 48.1474 12.1 48.1469 12.1C48.1464 12.1 48.146 12.1 48.1455 12.1C48.145 12.1 48.1445 12.1 48.1441 12.1C48.1436 12.1 48.1431 12.1 48.1427 12.1C48.1422 12.1 48.1417 12.1 48.1412 12.1C48.1408 12.1 48.1403 12.1 48.1398 12.1C48.1394 12.1 48.1389 12.1 48.1384 12.1C48.138 12.1 48.1375 12.1 48.137 12.1C48.1365 12.1 48.1361 12.1 48.1356 12.1C48.1351 12.1 48.1347 12.1 48.1342 12.1C48.1337 12.1 48.1333 12.1 48.1328 12.1C48.1323 12.1 48.1318 12.1 48.1314 12.1C48.1309 12.1 48.1304 12.1 48.13 12.1C48.1295 12.1 48.129 12.1 48.1286 12.1C48.1281 12.1 48.1276 12.1 48.1272 12.1C48.1267 12.1 48.1262 12.1 48.1258 12.1C48.1253 12.1 48.1248 12.1 48.1243 12.1C48.1239 12.1 48.1234 12.1 48.1229 12.1C48.1225 12.1 48.122 12.1 48.1215 12.1C48.1211 12.1 48.1206 12.1 48.1201 12.1C48.1197 12.1 48.1192 12.1 48.1187 12.1C48.1183 12.1 48.1178 12.1 48.1173 12.1C48.1169 12.1 48.1164 12.1 48.1159 12.1C48.1155 12.1 48.115 12.1 48.1145 12.1C48.1141 12.1 48.1136 12.1 48.1131 12.1C48.1127 12.1 48.1122 12.1 48.1117 12.1C48.1113 12.1 48.1108 12.1 48.1103 12.1C48.1099 12.1 48.1094 12.1 48.1089 12.1C48.1085 12.1 48.108 12.1 48.1075 12.1C48.1071 12.1 48.1066 12.1 48.1061 12.1C48.1057 12.1 48.1052 12.1 48.1047 12.1C48.1043 12.1 48.1038 12.1 48.1033 12.1C48.1029 12.1 48.1024 12.1 48.1019 12.1C48.1015 12.1 48.101 12.1 48.1005 12.1C48.1001 12.1 48.0996 12.1 48.0992 12.1C48.0987 12.1 48.0982 12.1 48.0978 12.1C48.0973 12.1 48.0968 12.1 48.0964 12.1C48.0959 12.1 48.0954 12.1 48.095 12.1C48.0945 12.1 48.094 12.1 48.0936 12.1C48.0931 12.1 48.0927 12.1 48.0922 12.1C48.0917 12.1 48.0913 12.1 48.0908 12.1C48.0903 12.1 48.0899 12.1 48.0894 12.1C48.0889 12.1 48.0885 12.1 48.088 12.1C48.0876 12.1 48.0871 12.1 48.0866 12.1C48.0862 12.1 48.0857 12.1 48.0852 12.1C48.0848 12.1 48.0843 12.1 48.0838 12.1C48.0834 12.1 48.0829 12.1 48.0825 12.1C48.082 12.1 48.0815 12.1 48.0811 12.1C48.0806 12.1 48.0801 12.1 48.0797 12.1C48.0792 12.1 48.0788 12.1 48.0783 12.1C48.0778 12.1 48.0774 12.1 48.0769 12.1C48.0765 12.1 48.076 12.1 48.0755 12.1C48.0751 12.1 48.0746 12.1 48.0741 12.1C48.0737 12.1 48.0732 12.1 48.0728 12.1C48.0723 12.1 48.0718 12.1 48.0714 12.1C48.0709 12.1 48.0705 12.1 48.07 12.1C48.0695 12.1 48.0691 12.1 48.0686 12.1C48.0682 12.1 48.0677 12.1 48.0672 12.1C48.0668 12.1 48.0663 12.1 48.0659 12.1C48.0654 12.1 48.0649 12.1 48.0645 12.1C48.064 12.1 48.0636 12.1 48.0631 12.1C48.0626 12.1 48.0622 12.1 48.0617 12.1C48.0613 12.1 48.0608 12.1 48.0603 12.1C48.0599 12.1 48.0594 12.1 48.059 12.1C48.0585 12.1 48.058 12.1 48.0576 12.1C48.0571 12.1 48.0567 12.1 48.0562 12.1C48.0557 12.1 48.0553 12.1 48.0548 12.1C48.0544 12.1 48.0539 12.1 48.0534 12.1C48.053 12.1 48.0525 12.1 48.0521 12.1C48.0516 12.1 48.0512 12.1 48.0507 12.1C48.0502 12.1 48.0498 12.1 48.0493 12.1C48.0489 12.1 48.0484 12.1 48.0479 12.1C48.0475 12.1 48.047 12.1 48.0466 12.1C48.0461 12.1 48.0457 12.1 48.0452 12.1C48.0447 12.1 48.0443 12.1 48.0438 12.1C48.0434 12.1 48.0429 12.1 48.0425 12.1C48.042 12.1 48.0415 12.1 48.0411 12.1C48.0406 12.1 48.0402 12.1 48.0397 12.1C48.0393 12.1 48.0388 12.1 48.0384 12.1C48.0379 12.1 48.0374 12.1 48.037 12.1C48.0365 12.1 48.0361 12.1 48.0356 12.1C48.0352 12.1 48.0347 12.1 48.0342 12.1C48.0338 12.1 48.0333 12.1 48.0329 12.1C48.0324 12.1 48.032 12.1 48.0315 12.1C48.0311 12.1 48.0306 12.1 48.0301 12.1C48.0297 12.1 48.0292 12.1 48.0288 12.1C48.0283 12.1 48.0279 12.1 48.0274 12.1C48.027 12.1 48.0265 12.1 48.0261 12.1C48.0256 12.1 48.0251 12.1 48.0247 12.1C48.0242 12.1 48.0238 12.1 48.0233 12.1C48.0229 12.1 48.0224 12.1 48.022 12.1C48.0215 12.1 48.0211 12.1 48.0206 12.1C48.0201 12.1 48.0197 12.1 48.0192 12.1C48.0188 12.1 48.0183 12.1 48.0179 12.1C48.0174 12.1 48.017 12.1 48.0165 12.1C48.0161 12.1 48.0156 12.1 48.0152 12.1C48.0147 12.1 48.0142 12.1 48.0138 12.1C48.0133 12.1 48.0129 12.1 48.0124 12.1C48.012 12.1 48.0115 12.1 48.0111 12.1C48.0106 12.1 48.0102 12.1 48.0097 12.1C48.0093 12.1 48.0088 12.1 48.0084 12.1C48.0079 12.1 48.0075 12.1 48.007 12.1C48.0066 12.1 48.0061 12.1 48.0057 12.1C48.0052 12.1 48.0047 12.1 48.0043 12.1C48.0038 12.1 48.0034 12.1 48.0029 12.1C48.0025 12.1 48.002 12.1 48.0016 12.1C48.0011 12.1 48.0007 12.1 48.0002 12.1C47.9998 12.1 47.9993 12.1 47.9989 12.1C47.9984 12.1 47.998 12.1 47.9975 12.1C47.9971 12.1 47.9966 12.1 47.9962 12.1C47.9957 12.1 47.9953 12.1 47.9948 12.1C47.9944 12.1 47.9939 12.1 47.9935 12.1C47.993 12.1 47.9926 12.1 47.9921 12.1C47.9917 12.1 47.9912 12.1 47.9908 12.1C47.9903 12.1 47.9899 12.1 47.9894 12.1C47.989 12.1 47.9885 12.1 47.9881 12.1C47.9876 12.1 47.9872 12.1 47.9867 12.1C47.9863 12.1 47.9858 12.1 47.9854 12.1C47.9849 12.1 47.9845 12.1 47.984 12.1C47.9836 12.1 47.9831 12.1 47.9827 12.1C47.9822 12.1 47.9818 12.1 47.9813 12.1C47.9809 12.1 47.9804 12.1 47.98 12.1C47.9796 12.1 47.9791 12.1 47.9787 12.1C47.9782 12.1 47.9778 12.1 47.9773 12.1C47.9769 12.1 47.9764 12.1 47.976 12.1C47.9755 12.1 47.9751 12.1 47.9746 12.1C47.9742 12.1 47.9737 12.1 47.9733 12.1C47.9728 12.1 47.9724 12.1 47.9719 12.1C47.9715 12.1 47.971 12.1 47.9706 12.1C47.9702 12.1 47.9697 12.1 47.9693 12.1C47.9688 12.1 47.9684 12.1 47.9679 12.1C47.9675 12.1 47.967 12.1 47.9666 12.1C47.9661 12.1 47.9657 12.1 47.9652 12.1C47.9648 12.1 47.9644 12.1 47.9639 12.1C47.9635 12.1 47.963 12.1 47.9626 12.1C47.9621 12.1 47.9617 12.1 47.9612 12.1C47.9608 12.1 47.9603 12.1 47.9599 12.1C47.9594 12.1 47.959 12.1 47.9586 12.1C47.9581 12.1 47.9577 12.1 47.9572 12.1C47.9568 12.1 47.9563 12.1 47.9559 12.1C47.9554 12.1 47.955 12.1 47.9546 12.1C47.9541 12.1 47.9537 12.1 47.9532 12.1C47.9528 12.1 47.9523 12.1 47.9519 12.1C47.9514 12.1 47.951 12.1 47.9506 12.1C47.9501 12.1 47.9497 12.1 47.9492 12.1C47.9488 12.1 47.9483 12.1 47.9479 12.1C47.9474 12.1 47.947 12.1 47.9466 12.1C47.9461 12.1 47.9457 12.1 47.9452 12.1C47.9448 12.1 47.9443 12.1 47.9439 12.1C47.9435 12.1 47.943 12.1 47.9426 12.1C47.9421 12.1 47.9417 12.1 47.9412 12.1C47.9408 12.1 47.9404 12.1 47.9399 12.1C47.9395 12.1 47.939 12.1 47.9386 12.1C47.9381 12.1 47.9377 12.1 47.9373 12.1C47.9368 12.1 47.9364 12.1 47.9359 12.1C47.9355 12.1 47.9351 12.1 47.9346 12.1C47.9342 12.1 47.9337 12.1 47.9333 12.1C47.9328 12.1 47.9324 12.1 47.932 12.1C47.9315 12.1 47.9311 12.1 47.9306 12.1C47.9302 12.1 47.9298 12.1 47.9293 12.1C47.9289 12.1 47.9284 12.1 47.928 12.1C47.9276 12.1 47.9271 12.1 47.9267 12.1C47.9262 12.1 47.9258 12.1 47.9253 12.1C47.9249 12.1 47.9245 12.1 47.924 12.1C47.9236 12.1 47.9231 12.1 47.9227 12.1C47.9223 12.1 47.9218 12.1 47.9214 12.1C47.9209 12.1 47.9205 12.1 47.9201 12.1C47.9196 12.1 47.9192 12.1 47.9188 12.1C47.9183 12.1 47.9179 12.1 47.9174 12.1C47.917 12.1 47.9166 12.1 47.9161 12.1C47.9157 12.1 47.9152 12.1 47.9148 12.1C47.9144 12.1 47.9139 12.1 47.9135 12.1C47.913 12.1 47.9126 12.1 47.9122 12.1C47.9117 12.1 47.9113 12.1 47.9109 12.1C47.9104 12.1 47.91 12.1 47.9095 12.1C47.9091 12.1 47.9087 12.1 47.9082 12.1C47.9078 12.1 47.9073 12.1 47.9069 12.1C47.9065 12.1 47.906 12.1 47.9056 12.1C47.9052 12.1 47.9047 12.1 47.9043 12.1C47.9038 12.1 47.9034 12.1 47.903 12.1C47.9025 12.1 47.9021 12.1 47.9017 12.1C47.9012 12.1 47.9008 12.1 47.9003 12.1C47.8999 12.1 47.8995 12.1 47.899 12.1C47.8986 12.1 47.8982 12.1 47.8977 12.1C47.8973 12.1 47.8969 12.1 47.8964 12.1C47.896 12.1 47.8955 12.1 47.8951 12.1C47.8947 12.1 47.8942 12.1 47.8938 12.1C47.8934 12.1 47.8929 12.1 47.8925 12.1C47.8921 12.1 47.8916 12.1 47.8912 12.1C47.8908 12.1 47.8903 12.1 47.8899 12.1C47.8894 12.1 47.889 12.1 47.8886 12.1C47.8881 12.1 47.8877 12.1 47.8873 12.1C47.8868 12.1 47.8864 12.1 47.886 12.1C47.8855 12.1 47.8851 12.1 47.8847 12.1C47.8842 12.1 47.8838 12.1 47.8834 12.1C47.8829 12.1 47.8825 12.1 47.8821 12.1C47.8816 12.1 47.8812 12.1 47.8808 12.1C47.8803 12.1 47.8799 12.1 47.8795 12.1C47.879 12.1 47.8786 12.1 47.8782 12.1C47.8777 12.1 47.8773 12.1 47.8769 12.1C47.8764 12.1 47.876 12.1 47.8756 12.1C47.8751 12.1 47.8747 12.1 47.8743 12.1C47.8738 12.1 47.8734 12.1 47.873 12.1C47.8725 12.1 47.8721 12.1 47.8717 12.1C47.8712 12.1 47.8708 12.1 47.8704 12.1C47.8699 12.1 47.8695 12.1 47.8691 12.1C47.8686 12.1 47.8682 12.1 47.8678 12.1C47.8673 12.1 47.8669 12.1 47.8665 12.1C47.866 12.1 47.8656 12.1 47.8652 12.1C47.8647 12.1 47.8643 12.1 47.8639 12.1C47.8635 12.1 47.863 12.1 47.8626 12.1C47.8622 12.1 47.8617 12.1 47.8613 12.1C47.8609 12.1 47.8604 12.1 47.86 12.1C47.8596 12.1 47.8591 12.1 47.8587 12.1C47.8583 12.1 47.8579 12.1 47.8574 12.1C47.857 12.1 47.8566 12.1 47.8561 12.1C47.8557 12.1 47.8553 12.1 47.8548 12.1C47.8544 12.1 47.854 12.1 47.8535 12.1C47.8531 12.1 47.8527 12.1 47.8523 12.1C47.8518 12.1 47.8514 12.1 47.851 12.1C47.8505 12.1 47.8501 12.1 47.8497 12.1C47.8493 12.1 47.8488 12.1 47.8484 12.1C47.848 12.1 47.8475 12.1 47.8471 12.1C47.8467 12.1 47.8462 12.1 47.8458 12.1C47.8454 12.1 47.845 12.1 47.8445 12.1C47.8441 12.1 47.8437 12.1 47.8432 12.1C47.8428 12.1 47.8424 12.1 47.842 12.1C47.8415 12.1 47.8411 12.1 47.8407 12.1C47.8403 12.1 47.8398 12.1 47.8394 12.1C47.839 12.1 47.8385 12.1 47.8381 12.1C47.8377 12.1 47.8373 12.1 47.8368 12.1C47.8364 12.1 47.836 12.1 47.8355 12.1C47.8351 12.1 47.8347 12.1 47.8343 12.1C47.8338 12.1 47.8334 12.1 47.833 12.1C47.8326 12.1 47.8321 12.1 47.8317 12.1C47.8313 12.1 47.8309 12.1 47.8304 12.1C47.83 12.1 47.8296 12.1 47.8291 12.1C47.8287 12.1 47.8283 12.1 47.8279 12.1C47.8274 12.1 47.827 12.1 47.8266 12.1C47.8262 12.1 47.8257 12.1 47.8253 12.1C47.8249 12.1 47.8245 12.1 47.824 12.1C47.8236 12.1 47.8232 12.1 47.8228 12.1C47.8223 12.1 47.8219 12.1 47.8215 12.1C47.8211 12.1 47.8206 12.1 47.8202 12.1C47.8198 12.1 47.8194 12.1 47.8189 12.1C47.8185 12.1 47.8181 12.1 47.8177 12.1C47.8172 12.1 47.8168 12.1 47.8164 12.1C47.816 12.1 47.8155 12.1 47.8151 12.1C47.8147 12.1 47.8143 12.1 47.8138 12.1C47.8134 12.1 47.813 12.1 47.8126 12.1C47.8121 12.1 47.8117 12.1 47.8113 12.1C47.8109 12.1 47.8105 12.1 47.81 12.1C47.8096 12.1 47.8092 12.1 47.8088 12.1C47.8083 12.1 47.8079 12.1 47.8075 12.1C47.8071 12.1 47.8066 12.1 47.8062 12.1C47.8058 12.1 47.8054 12.1 47.805 12.1C47.8045 12.1 47.8041 12.1 47.8037 12.1C47.8033 12.1 47.8028 12.1 47.8024 12.1C47.802 12.1 47.8016 12.1 47.8011 12.1C47.8007 12.1 47.8003 12.1 47.7999 12.1C47.7995 12.1 47.799 12.1 47.7986 12.1C47.7982 12.1 47.7978 12.1 47.7974 12.1C47.7969 12.1 47.7965 12.1 47.7961 12.1C47.7957 12.1 47.7952 12.1 47.7948 12.1C47.7944 12.1 47.794 12.1 47.7936 12.1C47.7931 12.1 47.7927 12.1 47.7923 12.1C47.7919 12.1 47.7915 12.1 47.791 12.1C47.7906 12.1 47.7902 12.1 47.7898 12.1C47.7894 12.1 47.7889 12.1 47.7885 12.1C47.7881 12.1 47.7877 12.1 47.7873 12.1C47.7868 12.1 47.7864 12.1 47.786 12.1C47.7856 12.1 47.7852 12.1 47.7847 12.1C47.7843 12.1 47.7839 12.1 47.7835 12.1C47.7831 12.1 47.7826 12.1 47.7822 12.1C47.7818 12.1 47.7814 12.1 47.781 12.1C47.7805 12.1 47.7801 12.1 47.7797 12.1C47.7793 12.1 47.7789 12.1 47.7784 12.1C47.778 12.1 47.7776 12.1 47.7772 12.1C47.7768 12.1 47.7764 12.1 47.7759 12.1C47.7755 12.1 47.7751 12.1 47.7747 12.1C47.7743 12.1 47.7738 12.1 47.7734 12.1C47.773 12.1 47.7726 12.1 47.7722 12.1C47.7718 12.1 47.7713 12.1 47.7709 12.1C47.7705 12.1 47.7701 12.1 47.7697 12.1C47.7693 12.1 47.7688 12.1 47.7684 12.1C47.768 12.1 47.7676 12.1 47.7672 12.1C47.7668 12.1 47.7663 12.1 47.7659 12.1C47.7655 12.1 47.7651 12.1 47.7647 12.1C47.7643 12.1 47.7638 12.1 47.7634 12.1C47.763 12.1 47.7626 12.1 47.7622 12.1C47.7618 12.1 47.7613 12.1 47.7609 12.1C47.7605 12.1 47.7601 12.1 47.7597 12.1C47.7593 12.1 47.7588 12.1 47.7584 12.1C47.758 12.1 47.7576 12.1 47.7572 12.1C47.7568 12.1 47.7563 12.1 47.7559 12.1C47.7555 12.1 47.7551 12.1 47.7547 12.1C47.7543 12.1 47.7539 12.1 47.7534 12.1C47.753 12.1 47.7526 12.1 47.7522 12.1C47.7518 12.1 47.7514 12.1 47.751 12.1C47.7505 12.1 47.7501 12.1 47.7497 12.1C47.7493 12.1 47.7489 12.1 47.7485 12.1C47.7481 12.1 47.7476 12.1 47.7472 12.1C47.7468 12.1 47.7464 12.1 47.746 12.1C47.7456 12.1 47.7452 12.1 47.7447 12.1C47.7443 12.1 47.7439 12.1 47.7435 12.1C47.7431 12.1 47.7427 12.1 47.7423 12.1C47.7419 12.1 47.7414 12.1 47.741 12.1C47.7406 12.1 47.7402 12.1 47.7398 12.1C47.7394 12.1 47.739 12.1 47.7385 12.1C47.7381 12.1 47.7377 12.1 47.7373 12.1C47.7369 12.1 47.7365 12.1 47.7361 12.1C47.7357 12.1 47.7353 12.1 47.7348 12.1C47.7344 12.1 47.734 12.1 47.7336 12.1C47.7332 12.1 47.7328 12.1 47.7324 12.1C47.732 12.1 47.7315 12.1 47.7311 12.1C47.7307 12.1 47.7303 12.1 47.7299 12.1C47.7295 12.1 47.7291 12.1 47.7287 12.1C47.7283 12.1 47.7278 12.1 47.7274 12.1C47.727 12.1 47.7266 12.1 47.7262 12.1C47.7258 12.1 47.7254 12.1 47.725 12.1C47.7246 12.1 47.7241 12.1 47.7237 12.1C47.7233 12.1 47.7229 12.1 47.7225 12.1C47.7221 12.1 47.7217 12.1 47.7213 12.1C47.7209 12.1 47.7205 12.1 47.72 12.1C47.7196 12.1 47.7192 12.1 47.7188 12.1C47.7184 12.1 47.718 12.1 47.7176 12.1C47.7172 12.1 47.7168 12.1 47.7164 12.1C47.716 12.1 47.7155 12.1 47.7151 12.1C47.7147 12.1 47.7143 12.1 47.7139 12.1C47.7135 12.1 47.7131 12.1 47.7127 12.1C47.7123 12.1 47.7119 12.1 47.7115 12.1C47.7111 12.1 47.7106 12.1 47.7102 12.1C47.7098 12.1 47.7094 12.1 47.709 12.1C47.7086 12.1 47.7082 12.1 47.7078 12.1C47.7074 12.1 47.707 12.1 47.7066 12.1C47.7062 12.1 47.7057 12.1 47.7053 12.1C47.7049 12.1 47.7045 12.1 47.7041 12.1C47.7037 12.1 47.7033 12.1 47.7029 12.1C47.7025 12.1 47.7021 12.1 47.7017 12.1C47.7013 12.1 47.7009 12.1 47.7005 12.1C47.7 12.1 47.6996 12.1 47.6992 12.1C47.6988 12.1 47.6984 12.1 47.698 12.1C47.6976 12.1 47.6972 12.1 47.6968 12.1C47.6964 12.1 47.696 12.1 47.6956 12.1C47.6952 12.1 47.6948 12.1 47.6944 12.1C47.694 12.1 47.6936 12.1 47.6931 12.1C47.6927 12.1 47.6923 12.1 47.6919 12.1C47.6915 12.1 47.6911 12.1 47.6907 12.1C47.6903 12.1 47.6899 12.1 47.6895 12.1C47.6891 12.1 47.6887 12.1 47.6883 12.1C47.6879 12.1 47.6875 12.1 47.6871 12.1C47.6867 12.1 47.6863 12.1 47.6859 12.1C47.6855 12.1 47.685 12.1 47.6846 12.1C47.6842 12.1 47.6838 12.1 47.6834 12.1C47.683 12.1 47.6826 12.1 47.6822 12.1C47.6818 12.1 47.6814 12.1 47.681 12.1C47.6806 12.1 47.6802 12.1 47.6798 12.1C47.6794 12.1 47.679 12.1 47.6786 12.1C47.6782 12.1 47.6778 12.1 47.6774 12.1C47.677 12.1 47.6766 12.1 47.6762 12.1C47.6758 12.1 47.6754 12.1 47.675 12.1C47.6746 12.1 47.6742 12.1 47.6738 12.1C47.6734 12.1 47.673 12.1 47.6725 12.1C47.6721 12.1 47.6717 12.1 47.6713 12.1C47.6709 12.1 47.6705 12.1 47.6701 12.1C47.6697 12.1 47.6693 12.1 47.6689 12.1C47.6685 12.1 47.6681 12.1 47.6677 12.1C47.6673 12.1 47.6669 12.1 47.6665 12.1C47.6661 12.1 47.6657 12.1 47.6653 12.1C47.6649 12.1 47.6645 12.1 47.6641 12.1C47.6637 12.1 47.6633 12.1 47.6629 12.1C47.6625 12.1 47.6621 12.1 47.6617 12.1C47.6613 12.1 47.6609 12.1 47.6605 12.1C47.6601 12.1 47.6597 12.1 47.6593 12.1C47.6589 12.1 47.6585 12.1 47.6581 12.1C47.6577 12.1 47.6573 12.1 47.6569 12.1C47.6565 12.1 47.6561 12.1 47.6557 12.1C47.6553 12.1 47.6549 12.1 47.6545 12.1C47.6541 12.1 47.6537 12.1 47.6533 12.1C47.6529 12.1 47.6525 12.1 47.6521 12.1C47.6517 12.1 47.6513 12.1 47.6509 12.1C47.6505 12.1 47.6501 12.1 47.6497 12.1C47.6493 12.1 47.6489 12.1 47.6485 12.1C47.6481 12.1 47.6477 12.1 47.6473 12.1C47.6469 12.1 47.6465 12.1 47.6461 12.1C47.6457 12.1 47.6453 12.1 47.6449 12.1C47.6445 12.1 47.6441 12.1 47.6438 12.1C47.6434 12.1 47.643 12.1 47.6426 12.1C47.6422 12.1 47.6418 12.1 47.6414 12.1C47.641 12.1 47.6406 12.1 47.6402 12.1C47.6398 12.1 47.6394 12.1 47.639 12.1C47.6386 12.1 47.6382 12.1 47.6378 12.1C47.6374 12.1 47.637 12.1 47.6366 12.1C47.6362 12.1 47.6358 12.1 47.6354 12.1C47.635 12.1 47.6346 12.1 47.6342 12.1C47.6338 12.1 47.6334 12.1 47.633 12.1C47.6326 12.1 47.6322 12.1 47.6318 12.1C47.6315 12.1 47.6311 12.1 47.6307 12.1C47.6303 12.1 47.6299 12.1 47.6295 12.1C47.6291 12.1 47.6287 12.1 47.6283 12.1C47.6279 12.1 47.6275 12.1 47.6271 12.1C47.6267 12.1 47.6263 12.1 47.6259 12.1C47.6255 12.1 47.6251 12.1 47.6247 12.1C47.6243 12.1 47.6239 12.1 47.6236 12.1C47.6232 12.1 47.6228 12.1 47.6224 12.1C47.622 12.1 47.6216 12.1 47.6212 12.1C47.6208 12.1 47.6204 12.1 47.62 12.1C47.6196 12.1 47.6192 12.1 47.6188 12.1C47.6184 12.1 47.618 12.1 47.6176 12.1C47.6172 12.1 47.6169 12.1 47.6165 12.1C47.6161 12.1 47.6157 12.1 47.6153 12.1C47.6149 12.1 47.6145 12.1 47.6141 12.1C47.6137 12.1 47.6133 12.1 47.6129 12.1C47.6125 12.1 47.6121 12.1 47.6117 12.1C47.6114 12.1 47.611 12.1 47.6106 12.1C47.6102 12.1 47.6098 12.1 47.6094 12.1C47.609 12.1 47.6086 12.1 47.6082 12.1C47.6078 12.1 47.6074 12.1 47.607 12.1C47.6066 12.1 47.6063 12.1 47.6059 12.1C47.6055 12.1 47.6051 12.1 47.6047 12.1C47.6043 12.1 47.6039 12.1 47.6035 12.1C47.6031 12.1 47.6027 12.1 47.6023 12.1C47.602 12.1 47.6016 12.1 47.6012 12.1C47.6008 12.1 47.6004 12.1 47.6 12.1V14.1ZM48.3374 14.0981C48.604 14.0814 48.8707 14.0647 49.1374 14.0481L49.0126 12.0519C48.746 12.0686 48.4793 12.0853 48.2126 12.1019L48.3374 14.0981ZM49.075 14.05C49.3625 14.05 49.643 14.041 49.9165 14.0228L49.7835 12.0272C49.557 12.0423 49.3209 12.05 49.075 12.05V14.05ZM49.974 14.0173C50.2481 13.983 50.4993 13.9484 50.7271 13.9134L50.4229 11.9366C50.2174 11.9683 49.9853 12.0003 49.726 12.0327L49.974 14.0173ZM50.7116 13.9156C50.9267 13.886 51.0822 13.875 51.1875 13.875C51.2392 13.875 51.2691 13.8777 51.2814 13.8793C51.2957 13.8811 51.2751 13.88 51.2333 13.8648L51.9167 11.9852C51.6646 11.8935 51.4002 11.875 51.1875 11.875C50.9595 11.875 50.7066 11.8974 50.4384 11.9344L50.7116 13.9156ZM51.3119 13.8898C51.3084 13.8888 51.2726 13.8791 51.22 13.8511C51.1687 13.8237 51.0727 13.7635 50.9816 13.6497C50.8825 13.5258 50.8096 13.3626 50.7941 13.1768C50.7795 13.0013 50.8206 12.8633 50.8559 12.7811L52.6941 13.5689C52.8314 13.2487 52.8552 12.7901 52.5434 12.4003C52.3092 12.1076 51.9935 12.0026 51.8381 11.9602L51.3119 13.8898ZM50.8135 12.9003C50.8405 12.8056 50.8797 12.7375 50.908 12.6963C50.9362 12.6556 50.9594 12.6329 50.9661 12.6267C50.9762 12.6172 50.9563 12.6375 50.8789 12.6818L51.8711 14.4182C52.027 14.3292 52.1905 14.2203 52.3339 14.0858C52.4706 13.9576 52.6511 13.7486 52.7365 13.4497L50.8135 12.9003ZM50.8509 12.6983C50.7547 12.7575 50.6023 12.8223 50.369 12.8714L50.781 14.8285C51.181 14.7443 51.5619 14.6091 51.8991 14.4017L50.8509 12.6983ZM41.0179 13.2679C40.62 13.6658 40.1882 14.0657 39.7221 14.4676L41.0279 15.9824C41.5284 15.551 41.9966 15.1176 42.4321 14.6821L41.0179 13.2679ZM39.7374 14.4546C39.2611 14.8488 38.8023 15.2174 38.3611 15.5606L39.5889 17.1394C40.0477 16.7826 40.5222 16.4012 41.0126 15.9954L39.7374 14.4546ZM38.3572 15.5637C37.8965 15.9257 37.4794 16.2445 37.1056 16.5208L38.2944 18.1292C38.6873 17.8388 39.1202 17.5077 39.5928 17.1363L38.3572 15.5637ZM37.1118 16.5163C36.7438 16.7839 36.4559 16.9956 36.25 17.15L37.45 18.75C37.6441 18.6044 37.9228 18.3994 38.2882 18.1337L37.1118 16.5163ZM36.2576 17.1443C35.688 17.5632 35.3713 17.7428 35.2489 17.7887L35.9511 19.6613C36.362 19.5072 36.8786 19.1702 37.4424 18.7557L36.2576 17.1443ZM35.3017 17.7705C35.1984 17.8028 35.2637 17.7646 35.4106 17.7818C35.4984 17.7922 35.6785 17.8302 35.8551 17.9788C36.0494 18.1425 36.1395 18.3556 36.1649 18.5336L34.1851 18.8164C34.2188 19.0528 34.3329 19.3117 34.5668 19.5087C34.7829 19.6907 35.0183 19.7495 35.1769 19.7682C35.4655 19.8021 35.735 19.7305 35.8983 19.6795L35.3017 17.7705ZM36.1649 18.5336C36.1747 18.6018 36.1743 18.6596 36.171 18.7029C36.1677 18.7462 36.1612 18.78 36.1559 18.8023C36.1459 18.8446 36.1359 18.8637 36.1403 18.8542C36.1438 18.8465 36.1544 18.8252 36.1765 18.7885C36.1982 18.7526 36.2278 18.7072 36.267 18.6517L34.633 17.4983C34.5153 17.6651 34.404 17.8424 34.3222 18.0208C34.2554 18.1666 34.1348 18.4648 34.1851 18.8164L36.1649 18.5336ZM36.267 18.6517C36.4047 18.4565 36.6331 18.2073 36.9812 17.9046L35.6688 16.3954C35.2502 16.7594 34.8953 17.1268 34.633 17.4983L36.267 18.6517ZM36.9918 17.8952C37.2963 17.6228 37.6267 17.3407 37.9832 17.049L36.7168 15.501C36.34 15.8093 35.987 16.1106 35.6582 16.4048L36.9918 17.8952ZM37.9663 17.0625C38.3623 16.7526 38.7497 16.4341 39.1286 16.1068L37.8214 14.5932C37.467 14.8993 37.1044 15.1974 36.7337 15.4875L37.9663 17.0625ZM39.0913 16.1375C39.4873 15.8276 39.8747 15.5091 40.2536 15.1818L38.9464 13.6682C38.592 13.9743 38.2294 14.2724 37.8587 14.5625L39.0913 16.1375ZM40.2727 15.1649C40.6566 14.8159 41.0238 14.4575 41.3741 14.0897L39.9259 12.7103C39.6095 13.0425 39.2767 13.3675 38.9273 13.6851L40.2727 15.1649ZM41.3571 14.1071C41.7635 13.7008 42.1052 13.3 42.3216 12.9153L40.5784 11.9347C40.4948 12.0834 40.3032 12.3326 39.9429 12.6929L41.3571 14.1071ZM42.3216 12.9153C42.5475 12.5136 42.6986 12.0132 42.5744 11.4751L40.6256 11.9249C40.6206 11.9031 40.6188 11.8833 40.6188 11.8672C40.6188 11.8514 40.6205 11.8423 40.6207 11.8411C40.6209 11.8403 40.6145 11.8706 40.5784 11.9347L42.3216 12.9153ZM42.5701 11.4575C42.4372 10.9258 42.0684 10.5604 41.7047 10.3179L40.5953 11.982C40.6261 12.0026 40.647 12.0191 40.6602 12.0307C40.6735 12.0423 40.6776 12.0476 40.676 12.0457C40.6743 12.0437 40.6666 12.0338 40.6572 12.0157C40.6475 11.9972 40.6374 11.9725 40.6299 11.9425L42.5701 11.4575ZM41.7312 10.3363C41.454 10.1382 41.1165 9.93354 40.7289 9.7221L39.7711 11.4779C40.1168 11.6665 40.3793 11.8284 40.5688 11.9637L41.7312 10.3363ZM40.6972 9.70557C40.1341 9.42399 39.5687 9.1765 39.0011 8.96367L38.2989 10.8363C38.798 11.0235 39.2993 11.2427 39.8028 11.4944L40.6972 9.70557ZM39.011 8.96743C38.4679 8.75719 37.9687 8.59265 37.5175 8.47986L37.0325 10.4201C37.3813 10.5073 37.7988 10.6428 38.289 10.8326L39.011 8.96743ZM37.4799 8.47121C37.1464 8.40142 36.9484 8.33877 36.8487 8.29543C36.7985 8.2736 36.812 8.27307 36.8533 8.30643C36.8899 8.336 37.0266 8.45545 37.0898 8.68688L35.1602 9.21312C35.2484 9.53622 35.4517 9.74525 35.5967 9.86232C35.7463 9.98318 35.9098 10.0681 36.0513 10.1296C36.3349 10.2529 36.6869 10.3486 37.0701 10.4288L37.4799 8.47121ZM37.1114 8.7856C37.1451 8.9879 37.0917 9.1359 37.0666 9.19161C37.042 9.24625 37.0244 9.25898 37.0515 9.22752C37.0755 9.1997 37.1208 9.15305 37.1968 9.0872C37.2716 9.0224 37.3677 8.94632 37.4882 8.85873L36.3118 7.24126C36.0121 7.45924 35.7388 7.68699 35.536 7.92248C35.3797 8.10393 35.0428 8.53947 35.1386 9.1144L37.1114 8.7856ZM37.5097 8.84262C37.7251 8.67691 37.8603 8.57834 37.9297 8.53205L36.8203 6.86795C36.6897 6.95499 36.5082 7.08975 36.2903 7.25737L37.5097 8.84262ZM37.8711 8.56824C37.886 8.55978 37.8977 8.55354 37.9066 8.54911C37.9155 8.54466 37.9206 8.54246 37.9221 8.54183C37.9237 8.54117 37.9204 8.54262 37.9126 8.54511C37.9048 8.54758 37.8908 8.55164 37.8711 8.55558L37.4789 6.59442C37.2472 6.64075 37.0412 6.73899 36.8789 6.83176L37.8711 8.56824ZM37.675 8.575C37.4958 8.575 37.3908 8.51066 37.3855 8.50749L38.4145 6.79251C38.2426 6.68934 37.9876 6.575 37.675 6.575V8.575ZM37.4528 8.54443C37.6172 8.62662 37.8208 8.70269 38.0338 8.77368L38.6662 6.87631C38.4792 6.81398 38.3828 6.77338 38.3472 6.75557L37.4528 8.54443ZM37.9654 8.74808C38.1527 8.82613 38.3495 8.91269 38.5559 9.00796L39.3941 7.19204C39.1671 7.0873 38.9473 6.99053 38.7346 6.90192L37.9654 8.74808ZM38.616 9.03335C38.8075 9.107 39.0193 9.19755 39.2521 9.30618L40.0979 7.49381C39.8307 7.36912 39.5758 7.25967 39.334 7.16665L38.616 9.03335ZM39.2278 9.29443C39.4611 9.41109 39.7111 9.53609 39.9778 9.66943L40.8722 7.88057C40.6055 7.74724 40.3555 7.62224 40.1222 7.50557L39.2278 9.29443ZM39.9778 9.66943C40.2445 9.80276 40.5278 9.94443 40.8278 10.0944L41.7222 8.30557C41.4222 8.15557 41.1389 8.0139 40.8722 7.88057L39.9778 9.66943ZM40.7747 10.0659C41.481 10.4739 41.8696 10.8095 42.05 11.05L43.65 9.85C43.2304 9.29047 42.569 8.79272 41.7753 8.33413L40.7747 10.0659ZM42.0625 11.0663C42.242 11.2957 42.2616 11.4442 42.2535 11.542L44.2465 11.708C44.3051 11.0058 44.058 10.371 43.6375 9.83369L42.0625 11.0663ZM42.2538 11.5384C42.2408 11.6876 42.1709 11.9055 41.95 12.2L43.55 13.4C43.9291 12.8945 44.1925 12.3291 44.2462 11.7116L42.2538 11.5384ZM41.9458 12.2056C41.6968 12.5425 41.3891 12.8967 41.0179 13.2679L42.4321 14.6821C42.8609 14.2533 43.2365 13.8242 43.5542 13.3944L41.9458 12.2056ZM66.8348 8.85L67.4348 8.05L67.3626 7.9959L67.282 7.95557L66.8348 8.85ZM67.2348 9.275L68.2247 9.13358L68.212 9.04431L68.1834 8.95877L67.2348 9.275ZM67.1348 9.7L68.0292 10.1472L68.0292 10.1472L67.1348 9.7ZM66.6598 10.3L67.3669 11.0071L67.3669 11.0071L66.6598 10.3ZM65.7348 11.65L64.8755 11.1385L64.8709 11.1461L64.8665 11.1539L65.7348 11.65ZM64.4848 13.9L65.3563 14.3903L65.3603 14.3833L65.3641 14.3763L64.4848 13.9ZM63.2598 16.15L62.3739 15.686L62.3697 15.6941L63.2598 16.15ZM62.6098 17.4L63.476 17.8997L63.48 17.8927L63.4839 17.8856L62.6098 17.4ZM61.9348 18.25L61.3801 17.4179L61.3631 17.4293L61.3466 17.4413L61.9348 18.25ZM61.5098 18.325L60.8027 19.0321L60.8347 19.0642L60.8696 19.0932L61.5098 18.325ZM61.4098 17.8L62.4078 17.8624L62.408 17.8587L61.4098 17.8ZM61.7098 16.8L62.6119 17.2315L62.6261 17.2019L62.6382 17.1714L61.7098 16.8ZM62.2848 15.525L61.3775 15.1045L61.3775 15.1045L62.2848 15.525ZM63.3598 13.3L64.2542 13.7472L64.258 13.7397L64.2616 13.7321L63.3598 13.3ZM64.5098 11.025L65.3916 11.4967L65.396 11.4883L64.5098 11.025ZM65.4098 9.5L64.6337 8.86941L64.6244 8.88084L64.6154 8.89255L65.4098 9.5ZM66.2848 8.675L66.4492 9.66139L66.5266 9.64849L66.601 9.62368L66.2848 8.675ZM58.2348 14.7L58.9276 15.4211L58.9348 15.4142L58.9419 15.4071L58.2348 14.7ZM56.1848 16.575L56.8274 17.3412L56.8274 17.3412L56.1848 16.575ZM54.7848 17.675L54.2004 16.8634L54.1924 16.8693L54.7848 17.675ZM53.5348 18.45L53.833 19.4045L53.8597 19.3961L53.8859 19.3863L53.5348 18.45ZM53.1098 18.4L52.1198 18.5414L52.1198 18.5414L53.1098 18.4ZM53.3848 17.8L54.2017 18.3767L54.2017 18.3767L53.3848 17.8ZM54.2598 16.875L54.9159 17.6296L54.9213 17.625L54.9266 17.6202L54.2598 16.875ZM55.0598 16.175L55.7057 16.9384L55.7106 16.9343L55.0598 16.175ZM55.7098 15.575L55.0027 14.8679L55.7098 15.575ZM56.3098 14.975L55.6293 14.2422L55.6157 14.2548L55.6027 14.2679L56.3098 14.975ZM57.1598 14.125L56.4527 13.4179L56.444 13.4265L56.4356 13.4353L57.1598 14.125ZM58.1098 12.425L59.0842 12.2001L59.0821 12.1913L59.0799 12.1825L58.1098 12.425ZM57.6598 11.875L57.0785 12.6887L57.0916 12.6981L57.1051 12.7071L57.6598 11.875ZM56.7598 11.325L57.2386 10.4471L57.2229 10.4386L57.207 10.4306L56.7598 11.325ZM55.1598 10.625L54.7988 11.5576L54.8086 11.5613L55.1598 10.625ZM53.7848 10.175L54.0273 9.20486L54.0085 9.20017L53.9896 9.19621L53.7848 10.175ZM52.5098 9.675L51.646 10.1789L51.6714 10.2224L51.701 10.2632L52.5098 9.675ZM53.1598 8.775L53.7479 9.58374L53.7588 9.57582L53.7695 9.56762L53.1598 8.775ZM53.6848 8.425L54.132 9.31943L54.132 9.31943L53.6848 8.425ZM54.0598 8.3V7.3H53.9887L53.9183 7.31005L54.0598 8.3ZM54.3848 8.375L54.7787 7.45586L54.7787 7.45585L54.3848 8.375ZM54.8598 8.55L55.2444 7.62692L55.2107 7.61287L55.176 7.60132L54.8598 8.55ZM55.4848 8.825L55.0657 9.73296L55.0953 9.74663L55.1258 9.75834L55.4848 8.825ZM56.1848 9.125L55.7619 10.0312L55.7763 10.0379L55.7908 10.0441L56.1848 9.125ZM56.9348 9.475L56.4876 10.3694L56.4876 10.3694L56.9348 9.475ZM57.7848 9.9L58.285 9.03413L58.2589 9.01905L58.232 9.00557L57.7848 9.9ZM59.3598 11.15L58.5598 11.75L58.5598 11.75L59.3598 11.15ZM59.7598 12.325L58.7635 12.2384L58.7632 12.242L59.7598 12.325ZM59.2598 13.525L58.4597 12.925L58.4556 12.9306L59.2598 13.525ZM66.2348 9.65C66.2912 9.69231 66.3577 9.74401 66.4351 9.80587L67.6845 8.24413C67.5951 8.17266 67.5117 8.10769 67.4348 8.05L66.2348 9.65ZM66.4351 9.80587C66.406 9.78262 66.3749 9.7511 66.3468 9.71096C66.3186 9.67075 66.2988 9.62943 66.2861 9.59123L68.1834 8.95877C68.0884 8.6735 67.9163 8.42963 67.6845 8.24413L66.4351 9.80587ZM66.2448 9.41642C66.2319 9.32608 66.2434 9.26269 66.2488 9.23971C66.2541 9.21739 66.2564 9.22057 66.2403 9.25279L68.0292 10.1472C68.1547 9.89613 68.2824 9.53771 68.2247 9.13358L66.2448 9.41642ZM66.2403 9.25279C66.2403 9.25278 66.24 9.2534 66.2393 9.25467C66.2387 9.25593 66.2376 9.25777 66.2362 9.26019C66.2334 9.26508 66.2291 9.27199 66.2232 9.28094C66.2113 9.29909 66.1939 9.32348 66.1695 9.3543C66.12 9.41676 66.0495 9.49607 65.9527 9.59289L67.3669 11.0071C67.6271 10.7468 67.8743 10.4569 68.0292 10.1472L66.2403 9.25279ZM65.9527 9.59289C65.6505 9.89504 65.283 10.4539 64.8755 11.1385L66.5941 12.1615C67.0199 11.4461 67.269 11.105 67.3669 11.0071L65.9527 9.59289ZM64.8665 11.1539C64.4623 11.8612 64.042 12.6179 63.6055 13.4237L65.3641 14.3763C65.7942 13.5821 66.2072 12.8388 66.603 12.1461L64.8665 11.1539ZM63.6132 13.4097C63.1591 14.2171 62.7459 14.9759 62.3739 15.686L64.1456 16.614C64.507 15.9241 64.9105 15.1829 65.3563 14.3903L63.6132 13.4097ZM62.3697 15.6941C62.0163 16.3842 61.8087 16.7827 61.7356 16.9144L63.4839 17.8856C63.5775 17.7173 63.8033 17.2825 64.1498 16.6059L62.3697 15.6941ZM61.7436 16.9003C61.6346 17.0891 61.5431 17.224 61.4704 17.3156C61.3934 17.4126 61.3615 17.4303 61.3801 17.4179L62.4895 19.082C62.8943 18.8121 63.2148 18.3523 63.476 17.8997L61.7436 16.9003ZM61.3466 17.4413C61.3144 17.4647 61.3766 17.4088 61.5172 17.384C61.5962 17.37 61.7042 17.3654 61.8272 17.3951C61.9531 17.4255 62.0629 17.4842 62.15 17.5568L60.8696 19.0932C61.1713 19.3447 61.5384 19.4111 61.8648 19.3535C62.1471 19.3037 62.3718 19.1687 62.5229 19.0587L61.3466 17.4413ZM62.2169 17.6179C62.2968 17.6978 62.3427 17.7777 62.368 17.8337C62.3929 17.8888 62.4018 17.9293 62.4046 17.9441C62.4093 17.9687 62.4024 17.9494 62.4078 17.8624L60.4117 17.7376C60.4005 17.9173 60.4019 18.1188 60.4399 18.3184C60.4761 18.5084 60.5637 18.7932 60.8027 19.0321L62.2169 17.6179ZM62.408 17.8587C62.4143 17.7523 62.4593 17.5505 62.6119 17.2315L60.8076 16.3685C60.5936 16.8161 60.4386 17.281 60.4115 17.7413L62.408 17.8587ZM62.6382 17.1714C62.6927 17.0354 62.8708 16.6386 63.1921 15.9455L61.3775 15.1045C61.0654 15.778 60.8602 16.2313 60.7813 16.4286L62.6382 17.1714ZM63.1921 15.9455C63.5039 15.2726 63.8578 14.5399 64.2542 13.7472L62.4653 12.8528C62.0617 13.6601 61.699 14.4107 61.3775 15.1045L63.1921 15.9455ZM64.2616 13.7321C64.6391 12.9443 65.0158 12.1992 65.3916 11.4967L63.628 10.5533C63.2371 11.2842 62.8471 12.0557 62.458 12.8679L64.2616 13.7321ZM65.396 11.4883C65.7782 10.7571 66.0443 10.3164 66.2041 10.1074L64.6154 8.89255C64.3419 9.25028 64.008 9.82628 63.6235 10.5617L65.396 11.4883ZM66.1859 10.1306C66.3954 9.87276 66.545 9.70402 66.6419 9.60711L65.2277 8.19289C65.0579 8.36265 64.8575 8.59391 64.6337 8.86941L66.1859 10.1306ZM66.6419 9.60711C66.6747 9.57424 66.6818 9.57284 66.663 9.58493C66.6466 9.59552 66.5728 9.64079 66.4492 9.66139L66.1204 7.68861C65.7022 7.7583 65.3992 8.02139 65.2277 8.19289L66.6419 9.60711ZM66.601 9.62368C66.539 9.64434 66.4481 9.66215 66.338 9.65214C66.2255 9.64192 66.1253 9.60552 66.0453 9.55749L67.0743 7.84251C66.7176 7.6285 66.319 7.60951 65.9685 7.72632L66.601 9.62368ZM66.0453 9.55749C66.1535 9.62244 66.268 9.68464 66.3876 9.74443L67.282 7.95557C67.2016 7.91536 67.1327 7.87756 67.0743 7.84251L66.0453 9.55749ZM57.5419 13.9789C56.6981 14.7896 56.0335 15.3967 55.5422 15.8088L56.8274 17.3412C57.3694 16.8866 58.0714 16.2437 58.9276 15.4211L57.5419 13.9789ZM55.5422 15.8088C55.0389 16.2309 54.5921 16.5815 54.2005 16.8635L55.3691 18.4865C55.8108 18.1685 56.2973 17.7858 56.8274 17.3412L55.5422 15.8088ZM54.1924 16.8693C53.6228 17.2882 53.3061 17.4678 53.1836 17.5137L53.8859 19.3863C54.2968 19.2322 54.8134 18.8952 55.3772 18.4807L54.1924 16.8693ZM53.2365 17.4955C53.1331 17.5278 53.1985 17.4896 53.3454 17.5068C53.4331 17.5172 53.6133 17.5552 53.7898 17.7038C53.9841 17.8675 54.0743 18.0806 54.0997 18.2586L52.1198 18.5414C52.1536 18.7778 52.2677 19.0367 52.5016 19.2337C52.7177 19.4157 52.9531 19.4745 53.1117 19.4932C53.4002 19.5271 53.6697 19.4555 53.833 19.4045L53.2365 17.4955ZM54.0997 18.2586C54.1095 18.3268 54.109 18.3846 54.1057 18.4279C54.1025 18.4712 54.096 18.505 54.0907 18.5273C54.0806 18.5696 54.0707 18.5887 54.0751 18.5792C54.0786 18.5715 54.0892 18.5502 54.1113 18.5135C54.133 18.4776 54.1625 18.4322 54.2017 18.3767L52.5678 17.2233C52.45 17.3901 52.3388 17.5674 52.257 17.7458C52.1902 17.8916 52.0696 18.1898 52.1198 18.5414L54.0997 18.2586ZM54.2017 18.3767C54.3395 18.1815 54.5679 17.9323 54.9159 17.6296L53.6036 16.1204C53.185 16.4844 52.83 16.8518 52.5678 17.2233L54.2017 18.3767ZM54.9266 17.6202C55.2394 17.3404 55.4986 17.1136 55.7057 16.9384L54.4138 15.4116C54.1876 15.603 53.9135 15.843 53.593 16.1298L54.9266 17.6202ZM55.7106 16.9343C55.9617 16.719 56.1973 16.5017 56.4169 16.2821L55.0027 14.8679C54.8222 15.0483 54.6245 15.231 54.409 15.4157L55.7106 16.9343ZM56.4169 16.2821C56.6002 16.0988 56.8002 15.8988 57.0169 15.6821L55.6027 14.2679C55.386 14.4846 55.186 14.6846 55.0027 14.8679L56.4169 16.2821ZM56.9902 15.7078C57.2441 15.4721 57.5429 15.1727 57.8839 14.8147L56.4356 13.4353C56.11 13.7773 55.8421 14.0446 55.6293 14.2422L56.9902 15.7078ZM57.8669 14.8321C58.2732 14.4258 58.6149 14.025 58.8313 13.6403L57.0882 12.6597C57.0046 12.8084 56.813 13.0576 56.4527 13.4179L57.8669 14.8321ZM58.8313 13.6403C59.0573 13.2386 59.2083 12.7382 59.0842 12.2001L57.1354 12.6499C57.1303 12.6281 57.1285 12.6083 57.1285 12.5922C57.1285 12.5764 57.1303 12.5673 57.1305 12.5661C57.1307 12.5653 57.1243 12.5956 57.0882 12.6597L58.8313 13.6403ZM59.0799 12.1825C58.947 11.6508 58.5781 11.2854 58.2145 11.0429L57.1051 12.7071C57.1359 12.7276 57.1568 12.7441 57.17 12.7557C57.1832 12.7673 57.1874 12.7726 57.1858 12.7707C57.1841 12.7687 57.1764 12.7588 57.1669 12.7407C57.1573 12.7222 57.1471 12.6975 57.1396 12.6675L59.0799 12.1825ZM58.241 11.0613C57.9638 10.8632 57.6263 10.6585 57.2386 10.4471L56.2809 12.2029C56.6266 12.3915 56.8891 12.5534 57.0785 12.6887L58.241 11.0613ZM57.207 10.4306C56.6438 10.149 56.0784 9.9015 55.5109 9.68867L54.8086 11.5613C55.3078 11.7485 55.809 11.9677 56.3126 12.2194L57.207 10.4306ZM55.5208 9.69243C54.9776 9.48219 54.4785 9.31765 54.0273 9.20486L53.5422 11.1451C53.891 11.2323 54.3086 11.3678 54.7988 11.5576L55.5208 9.69243ZM53.9896 9.19621C53.6575 9.1267 53.4327 9.06107 53.2936 9.00653C53.2608 8.99367 53.2365 8.98285 53.2193 8.97453C53.202 8.9661 53.1949 8.96165 53.1956 8.96209C53.196 8.96232 53.2089 8.97039 53.2292 8.98803C53.2493 9.0055 53.2827 9.03759 53.3185 9.08683L51.701 10.2632C51.9463 10.6005 52.321 10.7734 52.5634 10.8685C52.8493 10.9806 53.1954 11.0733 53.5799 11.1538L53.9896 9.19621ZM53.3735 9.17113C53.422 9.25414 53.456 9.34858 53.4708 9.44876C53.4855 9.5474 53.479 9.63427 53.4653 9.70237C53.4521 9.7688 53.4322 9.81675 53.419 9.84409C53.4057 9.87148 53.3955 9.88539 53.3954 9.88549C53.3951 9.88593 53.401 9.87781 53.4164 9.86109C53.4317 9.8446 53.4536 9.82248 53.484 9.79474C53.5456 9.73851 53.6318 9.66819 53.7479 9.58374L52.5716 7.96626C52.2701 8.18556 51.976 8.43489 51.7741 8.71451C51.5879 8.97226 51.2832 9.55696 51.646 10.1789L53.3735 9.17113ZM53.7695 9.56762C53.9699 9.41348 54.0849 9.34297 54.132 9.31943L53.2376 7.53057C53.018 7.64036 52.783 7.80319 52.5501 7.98238L53.7695 9.56762ZM54.132 9.31943C54.1934 9.28869 54.2148 9.288 54.2012 9.28995L53.9183 7.31005C53.6714 7.34533 53.4428 7.42797 53.2376 7.53057L54.132 9.31943ZM54.0598 9.3C53.9932 9.3 53.9664 9.28366 53.9909 9.29415L54.7787 7.45585C54.5698 7.36634 54.3264 7.3 54.0598 7.3V9.3ZM53.9908 9.29414C54.1441 9.35982 54.3319 9.42815 54.5435 9.49868L55.176 7.60132C54.9876 7.53851 54.8588 7.49018 54.7787 7.45586L53.9908 9.29414ZM54.4752 9.47308C54.6625 9.55113 54.8593 9.63769 55.0657 9.73296L55.9038 7.91704C55.6769 7.8123 55.457 7.71553 55.2444 7.62692L54.4752 9.47308ZM55.1258 9.75834C55.3173 9.832 55.5291 9.92255 55.7619 10.0312L56.6077 8.21882C56.3404 8.09412 56.0856 7.98467 55.8437 7.89165L55.1258 9.75834ZM55.7908 10.0441C56.0034 10.1352 56.2355 10.2434 56.4876 10.3694L57.382 8.58057C57.1007 8.43994 56.8328 8.31476 56.5787 8.20585L55.7908 10.0441ZM56.4876 10.3694C56.7542 10.5028 57.0376 10.6444 57.3376 10.7944L58.232 9.00557C57.932 8.85557 57.6486 8.7139 57.382 8.58057L56.4876 10.3694ZM57.2845 10.7659C57.9908 11.1739 58.3794 11.5095 58.5598 11.75L60.1598 10.55C59.7401 9.99047 59.0787 9.49272 58.285 9.03413L57.2845 10.7659ZM58.5598 11.75C58.7574 12.0135 58.7698 12.1664 58.7635 12.2384L60.756 12.4116C60.8164 11.717 60.5621 11.0865 60.1598 10.55L58.5598 11.75ZM58.7632 12.242C58.7489 12.4135 58.6746 12.6386 58.4598 12.925L60.0598 14.125C60.445 13.6114 60.7039 13.0365 60.7563 12.408L58.7632 12.242ZM58.4556 12.9306C58.2066 13.2675 57.8988 13.6217 57.5277 13.9929L58.9419 15.4071C59.3707 14.9783 59.7463 14.5492 60.0639 14.1194L58.4556 12.9306Z" fill="black"/>
</svg>
